<?xml version="1.0" encoding="utf-8"?>
<svg
  width="345mm"
  height="154mm"
  viewBox="0 0 345 154" xmlns="http://www.w3.org/2000/svg">
  <g
    id="middle"
    transform="translate(172.9725,77.259)">
    <g
      id="root">
      <g
        id="case">
        <g
          id=""
          transform="translate(-140.5602,-59.8254)">
          <circle
            r="1.7815"
            style="fill:none;stroke:#000000;stroke-width:0.5" />
        </g>
        <g
          id=""
          transform="translate(140.5602,-59.8254)">
          <circle
            r="1.7815"
            style="fill:none;stroke:#000000;stroke-width:0.5" />
        </g>
        <g
          id=""
          transform="translate(-158.2508,40.5054)">
          <circle
            r="1.7815"
            style="fill:none;stroke:#000000;stroke-width:0.5" />
        </g>
        <g
          id=""
          transform="translate(158.2508,40.5054)">
          <circle
            r="1.7815"
            style="fill:none;stroke:#000000;stroke-width:0.5" />
        </g>
        <g
          id=""
          transform="translate(-24.102,-37.73)">
          <circle
            r="1.7815"
            style="fill:none;stroke:#000000;stroke-width:0.5" />
        </g>
        <g
          id=""
          transform="translate(24.102,-37.73)">
          <circle
            r="1.7815"
            style="fill:none;stroke:#000000;stroke-width:0.5" />
        </g>
        <g
          id=""
          transform="translate(-18,65.453)">
          <circle
            r="1.7815"
            style="fill:none;stroke:#000000;stroke-width:0.5" />
        </g>
        <g
          id=""
          transform="translate(18,65.453)">
          <circle
            r="1.7815"
            style="fill:none;stroke:#000000;stroke-width:0.5" />
        </g>
        <g
          id="CasePerimeterOuter">
          <g
            id="">
            <path
              style="fill:none;fill-opacity:1;stroke:#000000;stroke-width:0.5"
              d="M -144.509 -61.864 Q -143.988 -64.818 -140.998 -64.571 L -82.703 -59.751 Q -79.713 -59.504 -76.759 -58.983 L -62.872 -56.535 Q -59.918 -56.014 -57.121 -54.93 L -19.78 -40.461 Q -16.983 -39.377 -13.983 -39.377 L -13 -39.377 Q -10 -39.377 -8.767 -36.642 L -7.5 -33.83 L -26.102 -33.83 L -61.632 -51.239 L -79.665 -54.419 L -138.275 -56.497 L -154.974 38.211 L -117.429 44.831 L -60.733 57.875 L -23.714 64.403 L -19.537 61.478 L 19.537 61.478 L 23.714 64.403 L 60.733 57.875 L 117.429 44.831 L 154.974 38.211 L 138.275 -56.497 L 79.665 -54.419 L 61.632 -51.239 L 26.102 -33.83 L 7.5 -33.83 L 8.767 -36.642 Q 10 -39.377 13 -39.377 L 13.983 -39.377 Q 16.983 -39.377 19.78 -40.461 L 57.121 -54.93 Q 59.918 -56.014 62.872 -56.535 L 76.759 -58.983 Q 79.713 -59.504 82.703 -59.751 L 140.998 -64.571 Q 143.988 -64.818 144.509 -61.864 L 162.645 40.993 Q 163.166 43.947 160.215 44.487 L 26.956 68.888 Q 24.005 69.428 21.005 69.428 L -21.005 69.428 Q -24.005 69.428 -26.956 68.888 L -160.215 44.487 Q -163.166 43.947 -162.645 40.993 L -144.509 -61.864" />
          </g>
        </g>
        <g
          id="CasePerimeterInner">
          <g
            id="">
            <path
              style="fill:none;fill-opacity:1;stroke:#000000;stroke-width:0.5"
              d="L -138.275 -56.497" />
          </g>
        </g>
        <g
          id="PcbPerimeter" />
      </g>
    </g>
  </g>
</svg>
