  0
SECTION
  2
HEADER
  9
$ACADVER
  1
AC1014
  9
$HANDSEED
  5
FFFF
  9
$MEASUREMENT
 70
     1
  0
ENDSEC
  0
SECTION
  2
TABLES
  0
TABLE
  2
VPORT
  5
8
330
0
100
AcDbSymbolTable
 70
     4
  0
VPORT
  5
2E
330
8
100
AcDbSymbolTableRecord
100
AcDbViewportTableRecord
  2
*ACTIVE
 70
     0
 10
0.0
 20
0.0
 11
1.0
 21
1.0
 12
210.0
 22
148.5
 13
0.0
 23
0.0
 14
10.0
 24
10.0
 15
10.0
 25
10.0
 16
0.0
 26
0.0
 36
1.0
 17
0.0
 27
0.0
 37
0.0
 40
341.0
 41
1.24
 42
50.0
 43
0.0
 44
0.0
 50
0.0
 51
0.0
 71
     0
 72
   100
 73
     1
 74
     3
 75
     0
 76
     0
 77
     0
 78
     0
  0
ENDTAB
  0
TABLE
  2
LTYPE
  5
5
330
0
100
AcDbSymbolTable
 70
     1
  0
LTYPE
  5
14
330
5
100
AcDbSymbolTableRecord
100
AcDbLinetypeTableRecord
  2
BYBLOCK
 70
     0
  3

 72
    65
 73
     0
 40
0.0
  0
LTYPE
  5
15
330
5
100
AcDbSymbolTableRecord
100
AcDbLinetypeTableRecord
  2
BYLAYER
 70
     0
  3

 72
    65
 73
     0
 40
0.0
  0
LTYPE
  5
16
330
5
100
AcDbSymbolTableRecord
100
AcDbLinetypeTableRecord
  2
CONTINUOUS
 70
     0
  3
Solid line
 72
    65
 73
     0
 40
0.0
  0
ENDTAB
  0
TABLE
  2
LAYER
  5
2
100
AcDbSymbolTable
 70
1
  0
LAYER
  5
50
100
AcDbSymbolTableRecord
100
AcDbLayerTableRecord
  2
0
 70
0
  6
CONTINUOUS
  0
ENDTAB
  0
TABLE
  2
STYLE
  5
3
330
0
100
AcDbSymbolTable
 70
     1
  0
STYLE
  5
11
330
3
100
AcDbSymbolTableRecord
100
AcDbTextStyleTableRecord
  2
STANDARD
 70
     0
 40
0.0
 41
1.0
 50
0.0
 71
     0
 42
2.5
  3
txt
  4

  0
ENDTAB
  0
TABLE
  2
VIEW
  5
6
330
0
100
AcDbSymbolTable
 70
     0
  0
ENDTAB
  0
TABLE
  2
UCS
  5
7
330
0
100
AcDbSymbolTable
 70
     0
  0
ENDTAB
  0
TABLE
  2
APPID
  5
9
330
0
100
AcDbSymbolTable
 70
     2
  0
APPID
  5
12
330
9
100
AcDbSymbolTableRecord
100
AcDbRegAppTableRecord
  2
ACAD
 70
     0
  0
ENDTAB
  0
TABLE
  2
DIMSTYLE
  5
A
330
0
100
AcDbSymbolTable
 70
     1
  0
DIMSTYLE
105
27
330
A
100
AcDbSymbolTableRecord
100
AcDbDimStyleTableRecord
  2
ISO-25
 70
     0
  3

  4

  5

  6

  7

 40
1.0
 41
2.5
 42
0.625
 43
3.75
 44
1.25
 45
0.0
 46
0.0
 47
0.0
 48
0.0
140
2.5
141
2.5
142
0.0
143
0.03937007874016
144
1.0
145
0.0
146
1.0
147
0.625
 71
     0
 72
     0
 73
     0
 74
     0
 75
     0
 76
     0
 77
     1
 78
     8
170
     0
171
     3
172
     1
173
     0
174
     0
175
     0
176
     0
177
     0
178
     0
270
     2
271
     2
272
     2
273
     2
274
     3
340
11
275
     0
280
     0
281
     0
282
     0
283
     0
284
     8
285
     0
286
     0
287
     3
288
     0
  0
ENDTAB
  0
TABLE
  2
BLOCK_RECORD
  5
1
330
0
100
AcDbSymbolTable
 70
     1
  0
BLOCK_RECORD
  5
1F
330
1
100
AcDbSymbolTableRecord
100
AcDbBlockTableRecord
  2
*MODEL_SPACE
  0
BLOCK_RECORD
  5
1B
330
1
100
AcDbSymbolTableRecord
100
AcDbBlockTableRecord
  2
*PAPER_SPACE
  0
ENDTAB
  0
ENDSEC
  0
SECTION
  2
BLOCKS
  0
BLOCK
  5
20
330
1F
100
AcDbEntity
  8
0
100
AcDbBlockBegin
  2
*MODEL_SPACE
 70
     0
 10
0.0
 20
0.0
 30
0.0
  3
*MODEL_SPACE
  1

  0
ENDBLK
  5
21
330
1F
100
AcDbEntity
  8
0
100
AcDbBlockEnd
  0
BLOCK
  5
1C
330
1B
100
AcDbEntity
 67
     1
  8
0
100
AcDbBlockBegin
  2
*PAPER_SPACE
  1

  0
ENDBLK
  5
1D
330
1B
100
AcDbEntity
 67
     1
  8
0
100
AcDbBlockEnd
  0
ENDSEC
  0
SECTION
  2
ENTITIES
  0
SPLINE
  5
100
100
AcDbEntity
  8
0
 62
7
100
AcDbSpline
 70
8
 71
3
 72
8
 73
4
 74
0
 40
0
 40
0
 40
0
 40
0
 40
1
 40
1
 40
1
 40
1
 10
32.412000
 20
137.716400
 30
0.0
 10
31.946868
 20
137.716400
 30
0.0
 10
31.527537
 20
137.436211
 30
0.0
 10
31.349539
 20
137.006486
 30
0.0
  0
SPLINE
  5
101
100
AcDbEntity
  8
0
 62
7
100
AcDbSpline
 70
8
 71
3
 72
8
 73
4
 74
0
 40
0
 40
0
 40
0
 40
0
 40
1
 40
1
 40
1
 40
1
 10
31.349539
 20
137.006486
 30
0.0
 10
31.171540
 20
136.576760
 30
0.0
 10
31.269930
 20
136.082125
 30
0.0
 10
31.598827
 20
135.753227
 30
0.0
  0
SPLINE
  5
102
100
AcDbEntity
  8
0
 62
7
100
AcDbSpline
 70
8
 71
3
 72
8
 73
4
 74
0
 40
0
 40
0
 40
0
 40
0
 40
1
 40
1
 40
1
 40
1
 10
31.598827
 20
135.753227
 30
0.0
 10
31.927725
 20
135.424330
 30
0.0
 10
32.422360
 20
135.325940
 30
0.0
 10
32.852086
 20
135.503939
 30
0.0
  0
SPLINE
  5
103
100
AcDbEntity
  8
0
 62
7
100
AcDbSpline
 70
8
 71
3
 72
8
 73
4
 74
0
 40
0
 40
0
 40
0
 40
0
 40
1
 40
1
 40
1
 40
1
 10
32.852086
 20
135.503939
 30
0.0
 10
33.281811
 20
135.681937
 30
0.0
 10
33.562000
 20
136.101268
 30
0.0
 10
33.562000
 20
136.566400
 30
0.0
  0
SPLINE
  5
104
100
AcDbEntity
  8
0
 62
7
100
AcDbSpline
 70
8
 71
3
 72
8
 73
4
 74
0
 40
0
 40
0
 40
0
 40
0
 40
1
 40
1
 40
1
 40
1
 10
33.562000
 20
136.566400
 30
0.0
 10
33.562000
 20
136.871399
 30
0.0
 10
33.440840
 20
137.163906
 30
0.0
 10
33.225173
 20
137.379573
 30
0.0
  0
SPLINE
  5
105
100
AcDbEntity
  8
0
 62
7
100
AcDbSpline
 70
8
 71
3
 72
8
 73
4
 74
0
 40
0
 40
0
 40
0
 40
0
 40
1
 40
1
 40
1
 40
1
 10
33.225173
 20
137.379573
 30
0.0
 10
33.009506
 20
137.595240
 30
0.0
 10
32.716999
 20
137.716400
 30
0.0
 10
32.412000
 20
137.716400
 30
0.0
  0
SPLINE
  5
106
100
AcDbEntity
  8
0
 62
7
100
AcDbSpline
 70
8
 71
3
 72
8
 73
4
 74
0
 40
0
 40
0
 40
0
 40
0
 40
1
 40
1
 40
1
 40
1
 10
313.532000
 20
137.716400
 30
0.0
 10
313.066868
 20
137.716400
 30
0.0
 10
312.647537
 20
137.436211
 30
0.0
 10
312.469539
 20
137.006486
 30
0.0
  0
SPLINE
  5
107
100
AcDbEntity
  8
0
 62
7
100
AcDbSpline
 70
8
 71
3
 72
8
 73
4
 74
0
 40
0
 40
0
 40
0
 40
0
 40
1
 40
1
 40
1
 40
1
 10
312.469539
 20
137.006486
 30
0.0
 10
312.291540
 20
136.576760
 30
0.0
 10
312.389930
 20
136.082125
 30
0.0
 10
312.718827
 20
135.753227
 30
0.0
  0
SPLINE
  5
108
100
AcDbEntity
  8
0
 62
7
100
AcDbSpline
 70
8
 71
3
 72
8
 73
4
 74
0
 40
0
 40
0
 40
0
 40
0
 40
1
 40
1
 40
1
 40
1
 10
312.718827
 20
135.753227
 30
0.0
 10
313.047725
 20
135.424330
 30
0.0
 10
313.542360
 20
135.325940
 30
0.0
 10
313.972086
 20
135.503939
 30
0.0
  0
SPLINE
  5
109
100
AcDbEntity
  8
0
 62
7
100
AcDbSpline
 70
8
 71
3
 72
8
 73
4
 74
0
 40
0
 40
0
 40
0
 40
0
 40
1
 40
1
 40
1
 40
1
 10
313.972086
 20
135.503939
 30
0.0
 10
314.401811
 20
135.681937
 30
0.0
 10
314.682000
 20
136.101268
 30
0.0
 10
314.682000
 20
136.566400
 30
0.0
  0
SPLINE
  5
10a
100
AcDbEntity
  8
0
 62
7
100
AcDbSpline
 70
8
 71
3
 72
8
 73
4
 74
0
 40
0
 40
0
 40
0
 40
0
 40
1
 40
1
 40
1
 40
1
 10
314.682000
 20
136.566400
 30
0.0
 10
314.682000
 20
136.871399
 30
0.0
 10
314.560840
 20
137.163906
 30
0.0
 10
314.345173
 20
137.379573
 30
0.0
  0
SPLINE
  5
10b
100
AcDbEntity
  8
0
 62
7
100
AcDbSpline
 70
8
 71
3
 72
8
 73
4
 74
0
 40
0
 40
0
 40
0
 40
0
 40
1
 40
1
 40
1
 40
1
 10
314.345173
 20
137.379573
 30
0.0
 10
314.129506
 20
137.595240
 30
0.0
 10
313.836999
 20
137.716400
 30
0.0
 10
313.532000
 20
137.716400
 30
0.0
  0
LWPOLYLINE
  5
10c
100
AcDbEntity
  8
0
 62
7
100
AcDbPolyline
 90
1
 70
1
 10
32.412000
 20
137.716400
 30
0.0
  0
SPLINE
  5
10d
100
AcDbEntity
  8
0
 62
7
100
AcDbSpline
 70
8
 71
3
 72
8
 73
4
 74
0
 40
0
 40
0
 40
0
 40
0
 40
1
 40
1
 40
1
 40
1
 10
14.721000
 20
37.385600
 30
0.0
 10
14.255868
 20
37.385600
 30
0.0
 10
13.836537
 20
37.105411
 30
0.0
 10
13.658539
 20
36.675686
 30
0.0
  0
SPLINE
  5
10e
100
AcDbEntity
  8
0
 62
7
100
AcDbSpline
 70
8
 71
3
 72
8
 73
4
 74
0
 40
0
 40
0
 40
0
 40
0
 40
1
 40
1
 40
1
 40
1
 10
13.658539
 20
36.675686
 30
0.0
 10
13.480540
 20
36.245960
 30
0.0
 10
13.578930
 20
35.751325
 30
0.0
 10
13.907827
 20
35.422427
 30
0.0
  0
SPLINE
  5
10f
100
AcDbEntity
  8
0
 62
7
100
AcDbSpline
 70
8
 71
3
 72
8
 73
4
 74
0
 40
0
 40
0
 40
0
 40
0
 40
1
 40
1
 40
1
 40
1
 10
13.907827
 20
35.422427
 30
0.0
 10
14.236725
 20
35.093530
 30
0.0
 10
14.731360
 20
34.995140
 30
0.0
 10
15.161086
 20
35.173139
 30
0.0
  0
SPLINE
  5
110
100
AcDbEntity
  8
0
 62
7
100
AcDbSpline
 70
8
 71
3
 72
8
 73
4
 74
0
 40
0
 40
0
 40
0
 40
0
 40
1
 40
1
 40
1
 40
1
 10
15.161086
 20
35.173139
 30
0.0
 10
15.590811
 20
35.351137
 30
0.0
 10
15.871000
 20
35.770468
 30
0.0
 10
15.871000
 20
36.235600
 30
0.0
  0
SPLINE
  5
111
100
AcDbEntity
  8
0
 62
7
100
AcDbSpline
 70
8
 71
3
 72
8
 73
4
 74
0
 40
0
 40
0
 40
0
 40
0
 40
1
 40
1
 40
1
 40
1
 10
15.871000
 20
36.235600
 30
0.0
 10
15.871000
 20
36.540599
 30
0.0
 10
15.749840
 20
36.833106
 30
0.0
 10
15.534173
 20
37.048773
 30
0.0
  0
SPLINE
  5
112
100
AcDbEntity
  8
0
 62
7
100
AcDbSpline
 70
8
 71
3
 72
8
 73
4
 74
0
 40
0
 40
0
 40
0
 40
0
 40
1
 40
1
 40
1
 40
1
 10
15.534173
 20
37.048773
 30
0.0
 10
15.318506
 20
37.264440
 30
0.0
 10
15.025999
 20
37.385600
 30
0.0
 10
14.721000
 20
37.385600
 30
0.0
  0
LWPOLYLINE
  5
113
100
AcDbEntity
  8
0
 62
7
100
AcDbPolyline
 90
1
 70
1
 10
313.532000
 20
137.716400
 30
0.0
  0
SPLINE
  5
114
100
AcDbEntity
  8
0
 62
7
100
AcDbSpline
 70
8
 71
3
 72
8
 73
4
 74
0
 40
0
 40
0
 40
0
 40
0
 40
1
 40
1
 40
1
 40
1
 10
331.223000
 20
37.385600
 30
0.0
 10
330.757868
 20
37.385600
 30
0.0
 10
330.338537
 20
37.105411
 30
0.0
 10
330.160539
 20
36.675686
 30
0.0
  0
SPLINE
  5
115
100
AcDbEntity
  8
0
 62
7
100
AcDbSpline
 70
8
 71
3
 72
8
 73
4
 74
0
 40
0
 40
0
 40
0
 40
0
 40
1
 40
1
 40
1
 40
1
 10
330.160539
 20
36.675686
 30
0.0
 10
329.982540
 20
36.245960
 30
0.0
 10
330.080930
 20
35.751325
 30
0.0
 10
330.409827
 20
35.422427
 30
0.0
  0
SPLINE
  5
116
100
AcDbEntity
  8
0
 62
7
100
AcDbSpline
 70
8
 71
3
 72
8
 73
4
 74
0
 40
0
 40
0
 40
0
 40
0
 40
1
 40
1
 40
1
 40
1
 10
330.409827
 20
35.422427
 30
0.0
 10
330.738725
 20
35.093530
 30
0.0
 10
331.233360
 20
34.995140
 30
0.0
 10
331.663086
 20
35.173139
 30
0.0
  0
SPLINE
  5
117
100
AcDbEntity
  8
0
 62
7
100
AcDbSpline
 70
8
 71
3
 72
8
 73
4
 74
0
 40
0
 40
0
 40
0
 40
0
 40
1
 40
1
 40
1
 40
1
 10
331.663086
 20
35.173139
 30
0.0
 10
332.092811
 20
35.351137
 30
0.0
 10
332.373000
 20
35.770468
 30
0.0
 10
332.373000
 20
36.235600
 30
0.0
  0
SPLINE
  5
118
100
AcDbEntity
  8
0
 62
7
100
AcDbSpline
 70
8
 71
3
 72
8
 73
4
 74
0
 40
0
 40
0
 40
0
 40
0
 40
1
 40
1
 40
1
 40
1
 10
332.373000
 20
36.235600
 30
0.0
 10
332.373000
 20
36.540599
 30
0.0
 10
332.251840
 20
36.833106
 30
0.0
 10
332.036173
 20
37.048773
 30
0.0
  0
SPLINE
  5
119
100
AcDbEntity
  8
0
 62
7
100
AcDbSpline
 70
8
 71
3
 72
8
 73
4
 74
0
 40
0
 40
0
 40
0
 40
0
 40
1
 40
1
 40
1
 40
1
 10
332.036173
 20
37.048773
 30
0.0
 10
331.820506
 20
37.264440
 30
0.0
 10
331.527999
 20
37.385600
 30
0.0
 10
331.223000
 20
37.385600
 30
0.0
  0
LWPOLYLINE
  5
11a
100
AcDbEntity
  8
0
 62
7
100
AcDbPolyline
 90
1
 70
1
 10
14.721000
 20
37.385600
 30
0.0
  0
SPLINE
  5
11b
100
AcDbEntity
  8
0
 62
7
100
AcDbSpline
 70
8
 71
3
 72
8
 73
4
 74
0
 40
0
 40
0
 40
0
 40
0
 40
1
 40
1
 40
1
 40
1
 10
148.870000
 20
115.621000
 30
0.0
 10
148.404868
 20
115.621000
 30
0.0
 10
147.985537
 20
115.340811
 30
0.0
 10
147.807539
 20
114.911086
 30
0.0
  0
SPLINE
  5
11c
100
AcDbEntity
  8
0
 62
7
100
AcDbSpline
 70
8
 71
3
 72
8
 73
4
 74
0
 40
0
 40
0
 40
0
 40
0
 40
1
 40
1
 40
1
 40
1
 10
147.807539
 20
114.911086
 30
0.0
 10
147.629540
 20
114.481360
 30
0.0
 10
147.727930
 20
113.986725
 30
0.0
 10
148.056827
 20
113.657827
 30
0.0
  0
SPLINE
  5
11d
100
AcDbEntity
  8
0
 62
7
100
AcDbSpline
 70
8
 71
3
 72
8
 73
4
 74
0
 40
0
 40
0
 40
0
 40
0
 40
1
 40
1
 40
1
 40
1
 10
148.056827
 20
113.657827
 30
0.0
 10
148.385725
 20
113.328930
 30
0.0
 10
148.880360
 20
113.230540
 30
0.0
 10
149.310086
 20
113.408539
 30
0.0
  0
SPLINE
  5
11e
100
AcDbEntity
  8
0
 62
7
100
AcDbSpline
 70
8
 71
3
 72
8
 73
4
 74
0
 40
0
 40
0
 40
0
 40
0
 40
1
 40
1
 40
1
 40
1
 10
149.310086
 20
113.408539
 30
0.0
 10
149.739811
 20
113.586537
 30
0.0
 10
150.020000
 20
114.005868
 30
0.0
 10
150.020000
 20
114.471000
 30
0.0
  0
SPLINE
  5
11f
100
AcDbEntity
  8
0
 62
7
100
AcDbSpline
 70
8
 71
3
 72
8
 73
4
 74
0
 40
0
 40
0
 40
0
 40
0
 40
1
 40
1
 40
1
 40
1
 10
150.020000
 20
114.471000
 30
0.0
 10
150.020000
 20
114.775999
 30
0.0
 10
149.898840
 20
115.068506
 30
0.0
 10
149.683173
 20
115.284173
 30
0.0
  0
SPLINE
  5
120
100
AcDbEntity
  8
0
 62
7
100
AcDbSpline
 70
8
 71
3
 72
8
 73
4
 74
0
 40
0
 40
0
 40
0
 40
0
 40
1
 40
1
 40
1
 40
1
 10
149.683173
 20
115.284173
 30
0.0
 10
149.467506
 20
115.499840
 30
0.0
 10
149.174999
 20
115.621000
 30
0.0
 10
148.870000
 20
115.621000
 30
0.0
  0
LWPOLYLINE
  5
121
100
AcDbEntity
  8
0
 62
7
100
AcDbPolyline
 90
1
 70
1
 10
331.223000
 20
37.385600
 30
0.0
  0
SPLINE
  5
122
100
AcDbEntity
  8
0
 62
7
100
AcDbSpline
 70
8
 71
3
 72
8
 73
4
 74
0
 40
0
 40
0
 40
0
 40
0
 40
1
 40
1
 40
1
 40
1
 10
197.074000
 20
115.621000
 30
0.0
 10
196.608868
 20
115.621000
 30
0.0
 10
196.189537
 20
115.340811
 30
0.0
 10
196.011539
 20
114.911086
 30
0.0
  0
SPLINE
  5
123
100
AcDbEntity
  8
0
 62
7
100
AcDbSpline
 70
8
 71
3
 72
8
 73
4
 74
0
 40
0
 40
0
 40
0
 40
0
 40
1
 40
1
 40
1
 40
1
 10
196.011539
 20
114.911086
 30
0.0
 10
195.833540
 20
114.481360
 30
0.0
 10
195.931930
 20
113.986725
 30
0.0
 10
196.260827
 20
113.657827
 30
0.0
  0
SPLINE
  5
124
100
AcDbEntity
  8
0
 62
7
100
AcDbSpline
 70
8
 71
3
 72
8
 73
4
 74
0
 40
0
 40
0
 40
0
 40
0
 40
1
 40
1
 40
1
 40
1
 10
196.260827
 20
113.657827
 30
0.0
 10
196.589725
 20
113.328930
 30
0.0
 10
197.084360
 20
113.230540
 30
0.0
 10
197.514086
 20
113.408539
 30
0.0
  0
SPLINE
  5
125
100
AcDbEntity
  8
0
 62
7
100
AcDbSpline
 70
8
 71
3
 72
8
 73
4
 74
0
 40
0
 40
0
 40
0
 40
0
 40
1
 40
1
 40
1
 40
1
 10
197.514086
 20
113.408539
 30
0.0
 10
197.943811
 20
113.586537
 30
0.0
 10
198.224000
 20
114.005868
 30
0.0
 10
198.224000
 20
114.471000
 30
0.0
  0
SPLINE
  5
126
100
AcDbEntity
  8
0
 62
7
100
AcDbSpline
 70
8
 71
3
 72
8
 73
4
 74
0
 40
0
 40
0
 40
0
 40
0
 40
1
 40
1
 40
1
 40
1
 10
198.224000
 20
114.471000
 30
0.0
 10
198.224000
 20
114.775999
 30
0.0
 10
198.102840
 20
115.068506
 30
0.0
 10
197.887173
 20
115.284173
 30
0.0
  0
SPLINE
  5
127
100
AcDbEntity
  8
0
 62
7
100
AcDbSpline
 70
8
 71
3
 72
8
 73
4
 74
0
 40
0
 40
0
 40
0
 40
0
 40
1
 40
1
 40
1
 40
1
 10
197.887173
 20
115.284173
 30
0.0
 10
197.671506
 20
115.499840
 30
0.0
 10
197.378999
 20
115.621000
 30
0.0
 10
197.074000
 20
115.621000
 30
0.0
  0
LWPOLYLINE
  5
128
100
AcDbEntity
  8
0
 62
7
100
AcDbPolyline
 90
1
 70
1
 10
148.870000
 20
115.621000
 30
0.0
  0
SPLINE
  5
129
100
AcDbEntity
  8
0
 62
7
100
AcDbSpline
 70
8
 71
3
 72
8
 73
4
 74
0
 40
0
 40
0
 40
0
 40
0
 40
1
 40
1
 40
1
 40
1
 10
154.972000
 20
12.438000
 30
0.0
 10
154.506868
 20
12.438000
 30
0.0
 10
154.087537
 20
12.157811
 30
0.0
 10
153.909539
 20
11.728086
 30
0.0
  0
SPLINE
  5
12a
100
AcDbEntity
  8
0
 62
7
100
AcDbSpline
 70
8
 71
3
 72
8
 73
4
 74
0
 40
0
 40
0
 40
0
 40
0
 40
1
 40
1
 40
1
 40
1
 10
153.909539
 20
11.728086
 30
0.0
 10
153.731540
 20
11.298360
 30
0.0
 10
153.829930
 20
10.803725
 30
0.0
 10
154.158827
 20
10.474827
 30
0.0
  0
SPLINE
  5
12b
100
AcDbEntity
  8
0
 62
7
100
AcDbSpline
 70
8
 71
3
 72
8
 73
4
 74
0
 40
0
 40
0
 40
0
 40
0
 40
1
 40
1
 40
1
 40
1
 10
154.158827
 20
10.474827
 30
0.0
 10
154.487725
 20
10.145930
 30
0.0
 10
154.982360
 20
10.047540
 30
0.0
 10
155.412086
 20
10.225539
 30
0.0
  0
SPLINE
  5
12c
100
AcDbEntity
  8
0
 62
7
100
AcDbSpline
 70
8
 71
3
 72
8
 73
4
 74
0
 40
0
 40
0
 40
0
 40
0
 40
1
 40
1
 40
1
 40
1
 10
155.412086
 20
10.225539
 30
0.0
 10
155.841811
 20
10.403537
 30
0.0
 10
156.122000
 20
10.822868
 30
0.0
 10
156.122000
 20
11.288000
 30
0.0
  0
SPLINE
  5
12d
100
AcDbEntity
  8
0
 62
7
100
AcDbSpline
 70
8
 71
3
 72
8
 73
4
 74
0
 40
0
 40
0
 40
0
 40
0
 40
1
 40
1
 40
1
 40
1
 10
156.122000
 20
11.288000
 30
0.0
 10
156.122000
 20
11.592999
 30
0.0
 10
156.000840
 20
11.885506
 30
0.0
 10
155.785173
 20
12.101173
 30
0.0
  0
SPLINE
  5
12e
100
AcDbEntity
  8
0
 62
7
100
AcDbSpline
 70
8
 71
3
 72
8
 73
4
 74
0
 40
0
 40
0
 40
0
 40
0
 40
1
 40
1
 40
1
 40
1
 10
155.785173
 20
12.101173
 30
0.0
 10
155.569506
 20
12.316840
 30
0.0
 10
155.276999
 20
12.438000
 30
0.0
 10
154.972000
 20
12.438000
 30
0.0
  0
LWPOLYLINE
  5
12f
100
AcDbEntity
  8
0
 62
7
100
AcDbPolyline
 90
1
 70
1
 10
197.074000
 20
115.621000
 30
0.0
  0
SPLINE
  5
130
100
AcDbEntity
  8
0
 62
7
100
AcDbSpline
 70
8
 71
3
 72
8
 73
4
 74
0
 40
0
 40
0
 40
0
 40
0
 40
1
 40
1
 40
1
 40
1
 10
190.972000
 20
12.438000
 30
0.0
 10
190.506868
 20
12.438000
 30
0.0
 10
190.087537
 20
12.157811
 30
0.0
 10
189.909539
 20
11.728086
 30
0.0
  0
SPLINE
  5
131
100
AcDbEntity
  8
0
 62
7
100
AcDbSpline
 70
8
 71
3
 72
8
 73
4
 74
0
 40
0
 40
0
 40
0
 40
0
 40
1
 40
1
 40
1
 40
1
 10
189.909539
 20
11.728086
 30
0.0
 10
189.731540
 20
11.298360
 30
0.0
 10
189.829930
 20
10.803725
 30
0.0
 10
190.158827
 20
10.474827
 30
0.0
  0
SPLINE
  5
132
100
AcDbEntity
  8
0
 62
7
100
AcDbSpline
 70
8
 71
3
 72
8
 73
4
 74
0
 40
0
 40
0
 40
0
 40
0
 40
1
 40
1
 40
1
 40
1
 10
190.158827
 20
10.474827
 30
0.0
 10
190.487725
 20
10.145930
 30
0.0
 10
190.982360
 20
10.047540
 30
0.0
 10
191.412086
 20
10.225539
 30
0.0
  0
SPLINE
  5
133
100
AcDbEntity
  8
0
 62
7
100
AcDbSpline
 70
8
 71
3
 72
8
 73
4
 74
0
 40
0
 40
0
 40
0
 40
0
 40
1
 40
1
 40
1
 40
1
 10
191.412086
 20
10.225539
 30
0.0
 10
191.841811
 20
10.403537
 30
0.0
 10
192.122000
 20
10.822868
 30
0.0
 10
192.122000
 20
11.288000
 30
0.0
  0
SPLINE
  5
134
100
AcDbEntity
  8
0
 62
7
100
AcDbSpline
 70
8
 71
3
 72
8
 73
4
 74
0
 40
0
 40
0
 40
0
 40
0
 40
1
 40
1
 40
1
 40
1
 10
192.122000
 20
11.288000
 30
0.0
 10
192.122000
 20
11.592999
 30
0.0
 10
192.000840
 20
11.885506
 30
0.0
 10
191.785173
 20
12.101173
 30
0.0
  0
SPLINE
  5
135
100
AcDbEntity
  8
0
 62
7
100
AcDbSpline
 70
8
 71
3
 72
8
 73
4
 74
0
 40
0
 40
0
 40
0
 40
0
 40
1
 40
1
 40
1
 40
1
 10
191.785173
 20
12.101173
 30
0.0
 10
191.569506
 20
12.316840
 30
0.0
 10
191.276999
 20
12.438000
 30
0.0
 10
190.972000
 20
12.438000
 30
0.0
  0
LWPOLYLINE
  5
136
100
AcDbEntity
  8
0
 62
7
100
AcDbPolyline
 90
1
 70
1
 10
154.972000
 20
12.438000
 30
0.0
  0
SPLINE
  5
137
100
AcDbEntity
  8
0
 62
7
100
AcDbSpline
 70
8
 71
3
 72
8
 73
4
 74
0
 40
0
 40
0
 40
0
 40
0
 40
1
 40
1
 40
1
 40
1
 10
28.463000
 20
138.605000
 30
0.0
 10
28.810333
 20
140.574333
 30
0.0
 10
29.980667
 20
141.476667
 30
0.0
 10
31.974000
 20
141.312000
 30
0.0
  0
LWPOLYLINE
  5
138
100
AcDbEntity
  8
0
 62
7
100
AcDbPolyline
 90
1
 70
1
 10
190.972000
 20
12.438000
 30
0.0
  0
SPLINE
  5
139
100
AcDbEntity
  8
0
 62
7
100
AcDbSpline
 70
8
 71
3
 72
8
 73
4
 74
0
 40
0
 40
0
 40
0
 40
0
 40
1
 40
1
 40
1
 40
1
 10
90.269000
 20
136.492000
 30
0.0
 10
92.262333
 20
136.327333
 30
0.0
 10
94.243667
 20
136.071333
 30
0.0
 10
96.213000
 20
135.724000
 30
0.0
  0
LWPOLYLINE
  5
13a
100
AcDbEntity
  8
0
 62
7
100
AcDbPolyline
 90
2
 70
0
 10
31.974000
 20
141.312000
 30
0.0
 10
90.269000
 20
136.492000
 30
0.0
  0
SPLINE
  5
13b
100
AcDbEntity
  8
0
 62
7
100
AcDbSpline
 70
8
 71
3
 72
8
 73
4
 74
0
 40
0
 40
0
 40
0
 40
0
 40
1
 40
1
 40
1
 40
1
 10
110.100000
 20
133.276000
 30
0.0
 10
112.069333
 20
132.928667
 30
0.0
 10
113.986333
 20
132.393667
 30
0.0
 10
115.851000
 20
131.671000
 30
0.0
  0
LWPOLYLINE
  5
13c
100
AcDbEntity
  8
0
 62
7
100
AcDbPolyline
 90
2
 70
0
 10
96.213000
 20
135.724000
 30
0.0
 10
110.100000
 20
133.276000
 30
0.0
  0
SPLINE
  5
13d
100
AcDbEntity
  8
0
 62
7
100
AcDbSpline
 70
8
 71
3
 72
8
 73
4
 74
0
 40
0
 40
0
 40
0
 40
0
 40
1
 40
1
 40
1
 40
1
 10
153.192000
 20
117.202000
 30
0.0
 10
155.056667
 20
116.479333
 30
0.0
 10
156.989000
 20
116.118000
 30
0.0
 10
158.989000
 20
116.118000
 30
0.0
  0
LWPOLYLINE
  5
13e
100
AcDbEntity
  8
0
 62
7
100
AcDbPolyline
 90
2
 70
0
 10
115.851000
 20
131.671000
 30
0.0
 10
153.192000
 20
117.202000
 30
0.0
  0
SPLINE
  5
13f
100
AcDbEntity
  8
0
 62
7
100
AcDbSpline
 70
8
 71
3
 72
8
 73
4
 74
0
 40
0
 40
0
 40
0
 40
0
 40
1
 40
1
 40
1
 40
1
 10
186.955000
 20
116.118000
 30
0.0
 10
188.955000
 20
116.118000
 30
0.0
 10
190.887333
 20
116.479333
 30
0.0
 10
192.752000
 20
117.202000
 30
0.0
  0
LWPOLYLINE
  5
140
100
AcDbEntity
  8
0
 62
7
100
AcDbPolyline
 90
2
 70
0
 10
158.989000
 20
116.118000
 30
0.0
 10
186.955000
 20
116.118000
 30
0.0
  0
SPLINE
  5
141
100
AcDbEntity
  8
0
 62
7
100
AcDbSpline
 70
8
 71
3
 72
8
 73
4
 74
0
 40
0
 40
0
 40
0
 40
0
 40
1
 40
1
 40
1
 40
1
 10
230.093000
 20
131.671000
 30
0.0
 10
231.957667
 20
132.393667
 30
0.0
 10
233.874667
 20
132.928667
 30
0.0
 10
235.844000
 20
133.276000
 30
0.0
  0
LWPOLYLINE
  5
142
100
AcDbEntity
  8
0
 62
7
100
AcDbPolyline
 90
2
 70
0
 10
192.752000
 20
117.202000
 30
0.0
 10
230.093000
 20
131.671000
 30
0.0
  0
SPLINE
  5
143
100
AcDbEntity
  8
0
 62
7
100
AcDbSpline
 70
8
 71
3
 72
8
 73
4
 74
0
 40
0
 40
0
 40
0
 40
0
 40
1
 40
1
 40
1
 40
1
 10
249.731000
 20
135.724000
 30
0.0
 10
251.700333
 20
136.071333
 30
0.0
 10
253.681667
 20
136.327333
 30
0.0
 10
255.675000
 20
136.492000
 30
0.0
  0
LWPOLYLINE
  5
144
100
AcDbEntity
  8
0
 62
7
100
AcDbPolyline
 90
2
 70
0
 10
235.844000
 20
133.276000
 30
0.0
 10
249.731000
 20
135.724000
 30
0.0
  0
SPLINE
  5
145
100
AcDbEntity
  8
0
 62
7
100
AcDbSpline
 70
8
 71
3
 72
8
 73
4
 74
0
 40
0
 40
0
 40
0
 40
0
 40
1
 40
1
 40
1
 40
1
 10
313.970000
 20
141.312000
 30
0.0
 10
315.963333
 20
141.476667
 30
0.0
 10
317.133667
 20
140.574333
 30
0.0
 10
317.481000
 20
138.605000
 30
0.0
  0
LWPOLYLINE
  5
146
100
AcDbEntity
  8
0
 62
7
100
AcDbPolyline
 90
2
 70
0
 10
255.675000
 20
136.492000
 30
0.0
 10
313.970000
 20
141.312000
 30
0.0
  0
SPLINE
  5
147
100
AcDbEntity
  8
0
 62
7
100
AcDbSpline
 70
8
 71
3
 72
8
 73
4
 74
0
 40
0
 40
0
 40
0
 40
0
 40
1
 40
1
 40
1
 40
1
 10
335.617000
 20
35.748000
 30
0.0
 10
335.964333
 20
33.778667
 30
0.0
 10
335.154333
 20
32.614000
 30
0.0
 10
333.187000
 20
32.254000
 30
0.0
  0
LWPOLYLINE
  5
148
100
AcDbEntity
  8
0
 62
7
100
AcDbPolyline
 90
2
 70
0
 10
317.481000
 20
138.605000
 30
0.0
 10
335.617000
 20
35.748000
 30
0.0
  0
SPLINE
  5
149
100
AcDbEntity
  8
0
 62
7
100
AcDbSpline
 70
8
 71
3
 72
8
 73
4
 74
0
 40
0
 40
0
 40
0
 40
0
 40
1
 40
1
 40
1
 40
1
 10
199.928000
 20
7.853000
 30
0.0
 10
197.960667
 20
7.493000
 30
0.0
 10
195.977000
 20
7.313000
 30
0.0
 10
193.977000
 20
7.313000
 30
0.0
  0
LWPOLYLINE
  5
14a
100
AcDbEntity
  8
0
 62
7
100
AcDbPolyline
 90
2
 70
0
 10
333.187000
 20
32.254000
 30
0.0
 10
199.928000
 20
7.853000
 30
0.0
  0
SPLINE
  5
14b
100
AcDbEntity
  8
0
 62
7
100
AcDbSpline
 70
8
 71
3
 72
8
 73
4
 74
0
 40
0
 40
0
 40
0
 40
0
 40
1
 40
1
 40
1
 40
1
 10
151.967000
 20
7.313000
 30
0.0
 10
149.967000
 20
7.313000
 30
0.0
 10
147.983333
 20
7.493000
 30
0.0
 10
146.016000
 20
7.853000
 30
0.0
  0
LWPOLYLINE
  5
14c
100
AcDbEntity
  8
0
 62
7
100
AcDbPolyline
 90
2
 70
0
 10
193.977000
 20
7.313000
 30
0.0
 10
151.967000
 20
7.313000
 30
0.0
  0
SPLINE
  5
14d
100
AcDbEntity
  8
0
 62
7
100
AcDbSpline
 70
8
 71
3
 72
8
 73
4
 74
0
 40
0
 40
0
 40
0
 40
0
 40
1
 40
1
 40
1
 40
1
 10
12.757000
 20
32.254000
 30
0.0
 10
10.789667
 20
32.614000
 30
0.0
 10
9.979667
 20
33.778667
 30
0.0
 10
10.327000
 20
35.748000
 30
0.0
  0
LWPOLYLINE
  5
14e
100
AcDbEntity
  8
0
 62
7
100
AcDbPolyline
 90
2
 70
0
 10
146.016000
 20
7.853000
 30
0.0
 10
12.757000
 20
32.254000
 30
0.0
  0
LWPOLYLINE
  5
14f
100
AcDbEntity
  8
0
 62
7
100
AcDbPolyline
 90
2
 70
0
 10
10.327000
 20
35.748000
 30
0.0
 10
28.463000
 20
138.605000
 30
0.0
  0
LWPOLYLINE
  5
150
100
AcDbEntity
  8
0
 62
7
100
AcDbPolyline
 90
22
 70
1
 10
17.997631
 20
38.529620
 30
0.0
 10
56.552864
 20
31.731301
 30
0.0
 10
57.073808
 20
34.685725
 30
0.0
 10
75.834401
 20
31.377731
 30
0.0
 10
76.702641
 20
36.301771
 30
0.0
 10
94.429185
 20
33.176107
 30
0.0
 10
93.387297
 20
27.267259
 30
0.0
 10
112.147889
 20
23.959264
 30
0.0
 10
111.279649
 20
19.035224
 30
0.0
 10
149.834882
 20
12.236905
 30
0.0
 10
153.325207
 20
32.031546
 30
0.0
 10
134.564615
 20
35.339540
 30
0.0
 10
147.796592
 20
110.381910
 30
0.0
 10
129.036000
 20
113.689904
 30
0.0
 10
129.904240
 20
118.613944
 30
0.0
 10
111.143648
 20
121.921939
 30
0.0
 10
112.185536
 20
127.830787
 30
0.0
 10
92.390895
 20
131.321112
 30
0.0
 10
91.522655
 20
126.397072
 30
0.0
 10
72.762062
 20
129.705066
 30
0.0
 10
72.241118
 20
126.750642
 30
0.0
 10
34.719934
 20
133.366631
 30
0.0
  0
LWPOLYLINE
  5
151
100
AcDbEntity
  8
0
 62
7
100
AcDbPolyline
 90
12
 70
1
 10
143.872000
 20
39.191000
 30
0.0
 10
162.922000
 20
39.191000
 30
0.0
 10
162.922000
 20
29.666000
 30
0.0
 10
183.022000
 20
29.666000
 30
0.0
 10
183.022000
 20
39.191000
 30
0.0
 10
202.072000
 20
39.191000
 30
0.0
 10
202.072000
 20
59.291000
 30
0.0
 10
183.022000
 20
59.291000
 30
0.0
 10
183.022000
 20
68.816000
 30
0.0
 10
162.922000
 20
68.816000
 30
0.0
 10
162.922000
 20
59.291000
 30
0.0
 10
143.872000
 20
59.291000
 30
0.0
  0
LWPOLYLINE
  5
152
100
AcDbEntity
  8
0
 62
7
100
AcDbPolyline
 90
22
 70
1
 10
327.946369
 20
38.529620
 30
0.0
 10
289.391136
 20
31.731301
 30
0.0
 10
288.870192
 20
34.685725
 30
0.0
 10
270.109599
 20
31.377731
 30
0.0
 10
269.241359
 20
36.301771
 30
0.0
 10
251.514815
 20
33.176107
 30
0.0
 10
252.556703
 20
27.267259
 30
0.0
 10
233.796111
 20
23.959264
 30
0.0
 10
234.664351
 20
19.035224
 30
0.0
 10
196.109118
 20
12.236905
 30
0.0
 10
192.618793
 20
32.031546
 30
0.0
 10
211.379385
 20
35.339540
 30
0.0
 10
198.147408
 20
110.381910
 30
0.0
 10
216.908000
 20
113.689904
 30
0.0
 10
216.039760
 20
118.613944
 30
0.0
 10
234.800352
 20
121.921939
 30
0.0
 10
233.758464
 20
127.830787
 30
0.0
 10
253.553105
 20
131.321112
 30
0.0
 10
254.421345
 20
126.397072
 30
0.0
 10
273.181938
 20
129.705066
 30
0.0
 10
273.702882
 20
126.750642
 30
0.0
 10
311.224066
 20
133.366631
 30
0.0
  0
ENDSEC
  0
SECTION
  2
OBJECTS
  0
DICTIONARY
  5
C
330
0
100
AcDbDictionary
  3
ACAD_GROUP
350
D
  3
ACAD_MLINESTYLE
350
17
  0
DICTIONARY
  5
D
330
C
100
AcDbDictionary
  0
DICTIONARY
  5
1A
330
C
100
AcDbDictionary
  0
DICTIONARY
  5
17
330
C
100
AcDbDictionary
  3
STANDARD
350
18
  0
DICTIONARY
  5
19
330
C
100
AcDbDictionary
  0
ENDSEC
  0
EOF
