  0
SECTION
  2
HEADER
  9
$ACADVER
  1
AC1014
  9
$HANDSEED
  5
FFFF
  9
$MEASUREMENT
 70
     1
  0
ENDSEC
  0
SECTION
  2
TABLES
  0
TABLE
  2
VPORT
  5
8
330
0
100
AcDbSymbolTable
 70
     4
  0
VPORT
  5
2E
330
8
100
AcDbSymbolTableRecord
100
AcDbViewportTableRecord
  2
*ACTIVE
 70
     0
 10
0.0
 20
0.0
 11
1.0
 21
1.0
 12
210.0
 22
148.5
 13
0.0
 23
0.0
 14
10.0
 24
10.0
 15
10.0
 25
10.0
 16
0.0
 26
0.0
 36
1.0
 17
0.0
 27
0.0
 37
0.0
 40
341.0
 41
1.24
 42
50.0
 43
0.0
 44
0.0
 50
0.0
 51
0.0
 71
     0
 72
   100
 73
     1
 74
     3
 75
     0
 76
     0
 77
     0
 78
     0
  0
ENDTAB
  0
TABLE
  2
LTYPE
  5
5
330
0
100
AcDbSymbolTable
 70
     1
  0
LTYPE
  5
14
330
5
100
AcDbSymbolTableRecord
100
AcDbLinetypeTableRecord
  2
BYBLOCK
 70
     0
  3

 72
    65
 73
     0
 40
0.0
  0
LTYPE
  5
15
330
5
100
AcDbSymbolTableRecord
100
AcDbLinetypeTableRecord
  2
BYLAYER
 70
     0
  3

 72
    65
 73
     0
 40
0.0
  0
LTYPE
  5
16
330
5
100
AcDbSymbolTableRecord
100
AcDbLinetypeTableRecord
  2
CONTINUOUS
 70
     0
  3
Solid line
 72
    65
 73
     0
 40
0.0
  0
ENDTAB
  0
TABLE
  2
LAYER
  5
2
100
AcDbSymbolTable
 70
1
  0
LAYER
  5
50
100
AcDbSymbolTableRecord
100
AcDbLayerTableRecord
  2
0
 70
0
  6
CONTINUOUS
  0
ENDTAB
  0
TABLE
  2
STYLE
  5
3
330
0
100
AcDbSymbolTable
 70
     1
  0
STYLE
  5
11
330
3
100
AcDbSymbolTableRecord
100
AcDbTextStyleTableRecord
  2
STANDARD
 70
     0
 40
0.0
 41
1.0
 50
0.0
 71
     0
 42
2.5
  3
txt
  4

  0
ENDTAB
  0
TABLE
  2
VIEW
  5
6
330
0
100
AcDbSymbolTable
 70
     0
  0
ENDTAB
  0
TABLE
  2
UCS
  5
7
330
0
100
AcDbSymbolTable
 70
     0
  0
ENDTAB
  0
TABLE
  2
APPID
  5
9
330
0
100
AcDbSymbolTable
 70
     2
  0
APPID
  5
12
330
9
100
AcDbSymbolTableRecord
100
AcDbRegAppTableRecord
  2
ACAD
 70
     0
  0
ENDTAB
  0
TABLE
  2
DIMSTYLE
  5
A
330
0
100
AcDbSymbolTable
 70
     1
  0
DIMSTYLE
105
27
330
A
100
AcDbSymbolTableRecord
100
AcDbDimStyleTableRecord
  2
ISO-25
 70
     0
  3

  4

  5

  6

  7

 40
1.0
 41
2.5
 42
0.625
 43
3.75
 44
1.25
 45
0.0
 46
0.0
 47
0.0
 48
0.0
140
2.5
141
2.5
142
0.0
143
0.03937007874016
144
1.0
145
0.0
146
1.0
147
0.625
 71
     0
 72
     0
 73
     0
 74
     0
 75
     0
 76
     0
 77
     1
 78
     8
170
     0
171
     3
172
     1
173
     0
174
     0
175
     0
176
     0
177
     0
178
     0
270
     2
271
     2
272
     2
273
     2
274
     3
340
11
275
     0
280
     0
281
     0
282
     0
283
     0
284
     8
285
     0
286
     0
287
     3
288
     0
  0
ENDTAB
  0
TABLE
  2
BLOCK_RECORD
  5
1
330
0
100
AcDbSymbolTable
 70
     1
  0
BLOCK_RECORD
  5
1F
330
1
100
AcDbSymbolTableRecord
100
AcDbBlockTableRecord
  2
*MODEL_SPACE
  0
BLOCK_RECORD
  5
1B
330
1
100
AcDbSymbolTableRecord
100
AcDbBlockTableRecord
  2
*PAPER_SPACE
  0
ENDTAB
  0
ENDSEC
  0
SECTION
  2
BLOCKS
  0
BLOCK
  5
20
330
1F
100
AcDbEntity
  8
0
100
AcDbBlockBegin
  2
*MODEL_SPACE
 70
     0
 10
0.0
 20
0.0
 30
0.0
  3
*MODEL_SPACE
  1

  0
ENDBLK
  5
21
330
1F
100
AcDbEntity
  8
0
100
AcDbBlockEnd
  0
BLOCK
  5
1C
330
1B
100
AcDbEntity
 67
     1
  8
0
100
AcDbBlockBegin
  2
*PAPER_SPACE
  1

  0
ENDBLK
  5
1D
330
1B
100
AcDbEntity
 67
     1
  8
0
100
AcDbBlockEnd
  0
ENDSEC
  0
SECTION
  2
ENTITIES
  0
SPLINE
  5
100
100
AcDbEntity
  8
0
 62
7
100
AcDbSpline
 70
8
 71
3
 72
8
 73
4
 74
0
 40
0
 40
0
 40
0
 40
0
 40
1
 40
1
 40
1
 40
1
 10
32.412000
 20
138.347900
 30
0.0
 10
31.691451
 20
138.347900
 30
0.0
 10
31.041851
 20
137.913851
 30
0.0
 10
30.766109
 20
137.248151
 30
0.0
  0
SPLINE
  5
101
100
AcDbEntity
  8
0
 62
7
100
AcDbSpline
 70
8
 71
3
 72
8
 73
4
 74
0
 40
0
 40
0
 40
0
 40
0
 40
1
 40
1
 40
1
 40
1
 10
30.766109
 20
137.248151
 30
0.0
 10
30.490366
 20
136.582450
 30
0.0
 10
30.642784
 20
135.816195
 30
0.0
 10
31.152289
 20
135.306689
 30
0.0
  0
SPLINE
  5
102
100
AcDbEntity
  8
0
 62
7
100
AcDbSpline
 70
8
 71
3
 72
8
 73
4
 74
0
 40
0
 40
0
 40
0
 40
0
 40
1
 40
1
 40
1
 40
1
 10
31.152289
 20
135.306689
 30
0.0
 10
31.661795
 20
134.797184
 30
0.0
 10
32.428050
 20
134.644766
 30
0.0
 10
33.093751
 20
134.920509
 30
0.0
  0
SPLINE
  5
103
100
AcDbEntity
  8
0
 62
7
100
AcDbSpline
 70
8
 71
3
 72
8
 73
4
 74
0
 40
0
 40
0
 40
0
 40
0
 40
1
 40
1
 40
1
 40
1
 10
33.093751
 20
134.920509
 30
0.0
 10
33.759451
 20
135.196251
 30
0.0
 10
34.193500
 20
135.845851
 30
0.0
 10
34.193500
 20
136.566400
 30
0.0
  0
SPLINE
  5
104
100
AcDbEntity
  8
0
 62
7
100
AcDbSpline
 70
8
 71
3
 72
8
 73
4
 74
0
 40
0
 40
0
 40
0
 40
0
 40
1
 40
1
 40
1
 40
1
 10
34.193500
 20
136.566400
 30
0.0
 10
34.193500
 20
137.038883
 30
0.0
 10
34.005807
 20
137.492015
 30
0.0
 10
33.671711
 20
137.826111
 30
0.0
  0
SPLINE
  5
105
100
AcDbEntity
  8
0
 62
7
100
AcDbSpline
 70
8
 71
3
 72
8
 73
4
 74
0
 40
0
 40
0
 40
0
 40
0
 40
1
 40
1
 40
1
 40
1
 10
33.671711
 20
137.826111
 30
0.0
 10
33.337615
 20
138.160207
 30
0.0
 10
32.884483
 20
138.347900
 30
0.0
 10
32.412000
 20
138.347900
 30
0.0
  0
SPLINE
  5
106
100
AcDbEntity
  8
0
 62
7
100
AcDbSpline
 70
8
 71
3
 72
8
 73
4
 74
0
 40
0
 40
0
 40
0
 40
0
 40
1
 40
1
 40
1
 40
1
 10
313.532000
 20
138.347900
 30
0.0
 10
312.811451
 20
138.347900
 30
0.0
 10
312.161851
 20
137.913851
 30
0.0
 10
311.886109
 20
137.248151
 30
0.0
  0
SPLINE
  5
107
100
AcDbEntity
  8
0
 62
7
100
AcDbSpline
 70
8
 71
3
 72
8
 73
4
 74
0
 40
0
 40
0
 40
0
 40
0
 40
1
 40
1
 40
1
 40
1
 10
311.886109
 20
137.248151
 30
0.0
 10
311.610366
 20
136.582450
 30
0.0
 10
311.762784
 20
135.816195
 30
0.0
 10
312.272289
 20
135.306689
 30
0.0
  0
SPLINE
  5
108
100
AcDbEntity
  8
0
 62
7
100
AcDbSpline
 70
8
 71
3
 72
8
 73
4
 74
0
 40
0
 40
0
 40
0
 40
0
 40
1
 40
1
 40
1
 40
1
 10
312.272289
 20
135.306689
 30
0.0
 10
312.781795
 20
134.797184
 30
0.0
 10
313.548050
 20
134.644766
 30
0.0
 10
314.213751
 20
134.920509
 30
0.0
  0
SPLINE
  5
109
100
AcDbEntity
  8
0
 62
7
100
AcDbSpline
 70
8
 71
3
 72
8
 73
4
 74
0
 40
0
 40
0
 40
0
 40
0
 40
1
 40
1
 40
1
 40
1
 10
314.213751
 20
134.920509
 30
0.0
 10
314.879451
 20
135.196251
 30
0.0
 10
315.313500
 20
135.845851
 30
0.0
 10
315.313500
 20
136.566400
 30
0.0
  0
SPLINE
  5
10a
100
AcDbEntity
  8
0
 62
7
100
AcDbSpline
 70
8
 71
3
 72
8
 73
4
 74
0
 40
0
 40
0
 40
0
 40
0
 40
1
 40
1
 40
1
 40
1
 10
315.313500
 20
136.566400
 30
0.0
 10
315.313500
 20
137.038883
 30
0.0
 10
315.125807
 20
137.492015
 30
0.0
 10
314.791711
 20
137.826111
 30
0.0
  0
SPLINE
  5
10b
100
AcDbEntity
  8
0
 62
7
100
AcDbSpline
 70
8
 71
3
 72
8
 73
4
 74
0
 40
0
 40
0
 40
0
 40
0
 40
1
 40
1
 40
1
 40
1
 10
314.791711
 20
137.826111
 30
0.0
 10
314.457615
 20
138.160207
 30
0.0
 10
314.004483
 20
138.347900
 30
0.0
 10
313.532000
 20
138.347900
 30
0.0
  0
LWPOLYLINE
  5
10c
100
AcDbEntity
  8
0
 62
7
100
AcDbPolyline
 90
1
 70
1
 10
32.412000
 20
138.347900
 30
0.0
  0
SPLINE
  5
10d
100
AcDbEntity
  8
0
 62
7
100
AcDbSpline
 70
8
 71
3
 72
8
 73
4
 74
0
 40
0
 40
0
 40
0
 40
0
 40
1
 40
1
 40
1
 40
1
 10
14.721000
 20
38.017100
 30
0.0
 10
14.000451
 20
38.017100
 30
0.0
 10
13.350851
 20
37.583051
 30
0.0
 10
13.075109
 20
36.917351
 30
0.0
  0
SPLINE
  5
10e
100
AcDbEntity
  8
0
 62
7
100
AcDbSpline
 70
8
 71
3
 72
8
 73
4
 74
0
 40
0
 40
0
 40
0
 40
0
 40
1
 40
1
 40
1
 40
1
 10
13.075109
 20
36.917351
 30
0.0
 10
12.799366
 20
36.251650
 30
0.0
 10
12.951784
 20
35.485395
 30
0.0
 10
13.461289
 20
34.975889
 30
0.0
  0
SPLINE
  5
10f
100
AcDbEntity
  8
0
 62
7
100
AcDbSpline
 70
8
 71
3
 72
8
 73
4
 74
0
 40
0
 40
0
 40
0
 40
0
 40
1
 40
1
 40
1
 40
1
 10
13.461289
 20
34.975889
 30
0.0
 10
13.970795
 20
34.466384
 30
0.0
 10
14.737050
 20
34.313966
 30
0.0
 10
15.402751
 20
34.589709
 30
0.0
  0
SPLINE
  5
110
100
AcDbEntity
  8
0
 62
7
100
AcDbSpline
 70
8
 71
3
 72
8
 73
4
 74
0
 40
0
 40
0
 40
0
 40
0
 40
1
 40
1
 40
1
 40
1
 10
15.402751
 20
34.589709
 30
0.0
 10
16.068451
 20
34.865451
 30
0.0
 10
16.502500
 20
35.515051
 30
0.0
 10
16.502500
 20
36.235600
 30
0.0
  0
SPLINE
  5
111
100
AcDbEntity
  8
0
 62
7
100
AcDbSpline
 70
8
 71
3
 72
8
 73
4
 74
0
 40
0
 40
0
 40
0
 40
0
 40
1
 40
1
 40
1
 40
1
 10
16.502500
 20
36.235600
 30
0.0
 10
16.502500
 20
36.708083
 30
0.0
 10
16.314807
 20
37.161215
 30
0.0
 10
15.980711
 20
37.495311
 30
0.0
  0
SPLINE
  5
112
100
AcDbEntity
  8
0
 62
7
100
AcDbSpline
 70
8
 71
3
 72
8
 73
4
 74
0
 40
0
 40
0
 40
0
 40
0
 40
1
 40
1
 40
1
 40
1
 10
15.980711
 20
37.495311
 30
0.0
 10
15.646615
 20
37.829407
 30
0.0
 10
15.193483
 20
38.017100
 30
0.0
 10
14.721000
 20
38.017100
 30
0.0
  0
LWPOLYLINE
  5
113
100
AcDbEntity
  8
0
 62
7
100
AcDbPolyline
 90
1
 70
1
 10
313.532000
 20
138.347900
 30
0.0
  0
SPLINE
  5
114
100
AcDbEntity
  8
0
 62
7
100
AcDbSpline
 70
8
 71
3
 72
8
 73
4
 74
0
 40
0
 40
0
 40
0
 40
0
 40
1
 40
1
 40
1
 40
1
 10
331.223000
 20
38.017100
 30
0.0
 10
330.502451
 20
38.017100
 30
0.0
 10
329.852851
 20
37.583051
 30
0.0
 10
329.577109
 20
36.917351
 30
0.0
  0
SPLINE
  5
115
100
AcDbEntity
  8
0
 62
7
100
AcDbSpline
 70
8
 71
3
 72
8
 73
4
 74
0
 40
0
 40
0
 40
0
 40
0
 40
1
 40
1
 40
1
 40
1
 10
329.577109
 20
36.917351
 30
0.0
 10
329.301366
 20
36.251650
 30
0.0
 10
329.453784
 20
35.485395
 30
0.0
 10
329.963289
 20
34.975889
 30
0.0
  0
SPLINE
  5
116
100
AcDbEntity
  8
0
 62
7
100
AcDbSpline
 70
8
 71
3
 72
8
 73
4
 74
0
 40
0
 40
0
 40
0
 40
0
 40
1
 40
1
 40
1
 40
1
 10
329.963289
 20
34.975889
 30
0.0
 10
330.472795
 20
34.466384
 30
0.0
 10
331.239050
 20
34.313966
 30
0.0
 10
331.904751
 20
34.589709
 30
0.0
  0
SPLINE
  5
117
100
AcDbEntity
  8
0
 62
7
100
AcDbSpline
 70
8
 71
3
 72
8
 73
4
 74
0
 40
0
 40
0
 40
0
 40
0
 40
1
 40
1
 40
1
 40
1
 10
331.904751
 20
34.589709
 30
0.0
 10
332.570451
 20
34.865451
 30
0.0
 10
333.004500
 20
35.515051
 30
0.0
 10
333.004500
 20
36.235600
 30
0.0
  0
SPLINE
  5
118
100
AcDbEntity
  8
0
 62
7
100
AcDbSpline
 70
8
 71
3
 72
8
 73
4
 74
0
 40
0
 40
0
 40
0
 40
0
 40
1
 40
1
 40
1
 40
1
 10
333.004500
 20
36.235600
 30
0.0
 10
333.004500
 20
36.708083
 30
0.0
 10
332.816807
 20
37.161215
 30
0.0
 10
332.482711
 20
37.495311
 30
0.0
  0
SPLINE
  5
119
100
AcDbEntity
  8
0
 62
7
100
AcDbSpline
 70
8
 71
3
 72
8
 73
4
 74
0
 40
0
 40
0
 40
0
 40
0
 40
1
 40
1
 40
1
 40
1
 10
332.482711
 20
37.495311
 30
0.0
 10
332.148615
 20
37.829407
 30
0.0
 10
331.695483
 20
38.017100
 30
0.0
 10
331.223000
 20
38.017100
 30
0.0
  0
LWPOLYLINE
  5
11a
100
AcDbEntity
  8
0
 62
7
100
AcDbPolyline
 90
1
 70
1
 10
14.721000
 20
38.017100
 30
0.0
  0
SPLINE
  5
11b
100
AcDbEntity
  8
0
 62
7
100
AcDbSpline
 70
8
 71
3
 72
8
 73
4
 74
0
 40
0
 40
0
 40
0
 40
0
 40
1
 40
1
 40
1
 40
1
 10
148.870000
 20
116.252500
 30
0.0
 10
148.149451
 20
116.252500
 30
0.0
 10
147.499851
 20
115.818451
 30
0.0
 10
147.224109
 20
115.152751
 30
0.0
  0
SPLINE
  5
11c
100
AcDbEntity
  8
0
 62
7
100
AcDbSpline
 70
8
 71
3
 72
8
 73
4
 74
0
 40
0
 40
0
 40
0
 40
0
 40
1
 40
1
 40
1
 40
1
 10
147.224109
 20
115.152751
 30
0.0
 10
146.948366
 20
114.487050
 30
0.0
 10
147.100784
 20
113.720795
 30
0.0
 10
147.610289
 20
113.211289
 30
0.0
  0
SPLINE
  5
11d
100
AcDbEntity
  8
0
 62
7
100
AcDbSpline
 70
8
 71
3
 72
8
 73
4
 74
0
 40
0
 40
0
 40
0
 40
0
 40
1
 40
1
 40
1
 40
1
 10
147.610289
 20
113.211289
 30
0.0
 10
148.119795
 20
112.701784
 30
0.0
 10
148.886050
 20
112.549366
 30
0.0
 10
149.551751
 20
112.825109
 30
0.0
  0
SPLINE
  5
11e
100
AcDbEntity
  8
0
 62
7
100
AcDbSpline
 70
8
 71
3
 72
8
 73
4
 74
0
 40
0
 40
0
 40
0
 40
0
 40
1
 40
1
 40
1
 40
1
 10
149.551751
 20
112.825109
 30
0.0
 10
150.217451
 20
113.100851
 30
0.0
 10
150.651500
 20
113.750451
 30
0.0
 10
150.651500
 20
114.471000
 30
0.0
  0
SPLINE
  5
11f
100
AcDbEntity
  8
0
 62
7
100
AcDbSpline
 70
8
 71
3
 72
8
 73
4
 74
0
 40
0
 40
0
 40
0
 40
0
 40
1
 40
1
 40
1
 40
1
 10
150.651500
 20
114.471000
 30
0.0
 10
150.651500
 20
114.943483
 30
0.0
 10
150.463807
 20
115.396615
 30
0.0
 10
150.129711
 20
115.730711
 30
0.0
  0
SPLINE
  5
120
100
AcDbEntity
  8
0
 62
7
100
AcDbSpline
 70
8
 71
3
 72
8
 73
4
 74
0
 40
0
 40
0
 40
0
 40
0
 40
1
 40
1
 40
1
 40
1
 10
150.129711
 20
115.730711
 30
0.0
 10
149.795615
 20
116.064807
 30
0.0
 10
149.342483
 20
116.252500
 30
0.0
 10
148.870000
 20
116.252500
 30
0.0
  0
LWPOLYLINE
  5
121
100
AcDbEntity
  8
0
 62
7
100
AcDbPolyline
 90
1
 70
1
 10
331.223000
 20
38.017100
 30
0.0
  0
SPLINE
  5
122
100
AcDbEntity
  8
0
 62
7
100
AcDbSpline
 70
8
 71
3
 72
8
 73
4
 74
0
 40
0
 40
0
 40
0
 40
0
 40
1
 40
1
 40
1
 40
1
 10
197.074000
 20
116.252500
 30
0.0
 10
196.353451
 20
116.252500
 30
0.0
 10
195.703851
 20
115.818451
 30
0.0
 10
195.428109
 20
115.152751
 30
0.0
  0
SPLINE
  5
123
100
AcDbEntity
  8
0
 62
7
100
AcDbSpline
 70
8
 71
3
 72
8
 73
4
 74
0
 40
0
 40
0
 40
0
 40
0
 40
1
 40
1
 40
1
 40
1
 10
195.428109
 20
115.152751
 30
0.0
 10
195.152366
 20
114.487050
 30
0.0
 10
195.304784
 20
113.720795
 30
0.0
 10
195.814289
 20
113.211289
 30
0.0
  0
SPLINE
  5
124
100
AcDbEntity
  8
0
 62
7
100
AcDbSpline
 70
8
 71
3
 72
8
 73
4
 74
0
 40
0
 40
0
 40
0
 40
0
 40
1
 40
1
 40
1
 40
1
 10
195.814289
 20
113.211289
 30
0.0
 10
196.323795
 20
112.701784
 30
0.0
 10
197.090050
 20
112.549366
 30
0.0
 10
197.755751
 20
112.825109
 30
0.0
  0
SPLINE
  5
125
100
AcDbEntity
  8
0
 62
7
100
AcDbSpline
 70
8
 71
3
 72
8
 73
4
 74
0
 40
0
 40
0
 40
0
 40
0
 40
1
 40
1
 40
1
 40
1
 10
197.755751
 20
112.825109
 30
0.0
 10
198.421451
 20
113.100851
 30
0.0
 10
198.855500
 20
113.750451
 30
0.0
 10
198.855500
 20
114.471000
 30
0.0
  0
SPLINE
  5
126
100
AcDbEntity
  8
0
 62
7
100
AcDbSpline
 70
8
 71
3
 72
8
 73
4
 74
0
 40
0
 40
0
 40
0
 40
0
 40
1
 40
1
 40
1
 40
1
 10
198.855500
 20
114.471000
 30
0.0
 10
198.855500
 20
114.943483
 30
0.0
 10
198.667807
 20
115.396615
 30
0.0
 10
198.333711
 20
115.730711
 30
0.0
  0
SPLINE
  5
127
100
AcDbEntity
  8
0
 62
7
100
AcDbSpline
 70
8
 71
3
 72
8
 73
4
 74
0
 40
0
 40
0
 40
0
 40
0
 40
1
 40
1
 40
1
 40
1
 10
198.333711
 20
115.730711
 30
0.0
 10
197.999615
 20
116.064807
 30
0.0
 10
197.546483
 20
116.252500
 30
0.0
 10
197.074000
 20
116.252500
 30
0.0
  0
LWPOLYLINE
  5
128
100
AcDbEntity
  8
0
 62
7
100
AcDbPolyline
 90
1
 70
1
 10
148.870000
 20
116.252500
 30
0.0
  0
SPLINE
  5
129
100
AcDbEntity
  8
0
 62
7
100
AcDbSpline
 70
8
 71
3
 72
8
 73
4
 74
0
 40
0
 40
0
 40
0
 40
0
 40
1
 40
1
 40
1
 40
1
 10
154.972000
 20
13.069500
 30
0.0
 10
154.251451
 20
13.069500
 30
0.0
 10
153.601851
 20
12.635451
 30
0.0
 10
153.326109
 20
11.969751
 30
0.0
  0
SPLINE
  5
12a
100
AcDbEntity
  8
0
 62
7
100
AcDbSpline
 70
8
 71
3
 72
8
 73
4
 74
0
 40
0
 40
0
 40
0
 40
0
 40
1
 40
1
 40
1
 40
1
 10
153.326109
 20
11.969751
 30
0.0
 10
153.050366
 20
11.304050
 30
0.0
 10
153.202784
 20
10.537795
 30
0.0
 10
153.712289
 20
10.028289
 30
0.0
  0
SPLINE
  5
12b
100
AcDbEntity
  8
0
 62
7
100
AcDbSpline
 70
8
 71
3
 72
8
 73
4
 74
0
 40
0
 40
0
 40
0
 40
0
 40
1
 40
1
 40
1
 40
1
 10
153.712289
 20
10.028289
 30
0.0
 10
154.221795
 20
9.518784
 30
0.0
 10
154.988050
 20
9.366366
 30
0.0
 10
155.653751
 20
9.642109
 30
0.0
  0
SPLINE
  5
12c
100
AcDbEntity
  8
0
 62
7
100
AcDbSpline
 70
8
 71
3
 72
8
 73
4
 74
0
 40
0
 40
0
 40
0
 40
0
 40
1
 40
1
 40
1
 40
1
 10
155.653751
 20
9.642109
 30
0.0
 10
156.319451
 20
9.917851
 30
0.0
 10
156.753500
 20
10.567451
 30
0.0
 10
156.753500
 20
11.288000
 30
0.0
  0
SPLINE
  5
12d
100
AcDbEntity
  8
0
 62
7
100
AcDbSpline
 70
8
 71
3
 72
8
 73
4
 74
0
 40
0
 40
0
 40
0
 40
0
 40
1
 40
1
 40
1
 40
1
 10
156.753500
 20
11.288000
 30
0.0
 10
156.753500
 20
11.760483
 30
0.0
 10
156.565807
 20
12.213615
 30
0.0
 10
156.231711
 20
12.547711
 30
0.0
  0
SPLINE
  5
12e
100
AcDbEntity
  8
0
 62
7
100
AcDbSpline
 70
8
 71
3
 72
8
 73
4
 74
0
 40
0
 40
0
 40
0
 40
0
 40
1
 40
1
 40
1
 40
1
 10
156.231711
 20
12.547711
 30
0.0
 10
155.897615
 20
12.881807
 30
0.0
 10
155.444483
 20
13.069500
 30
0.0
 10
154.972000
 20
13.069500
 30
0.0
  0
LWPOLYLINE
  5
12f
100
AcDbEntity
  8
0
 62
7
100
AcDbPolyline
 90
1
 70
1
 10
197.074000
 20
116.252500
 30
0.0
  0
SPLINE
  5
130
100
AcDbEntity
  8
0
 62
7
100
AcDbSpline
 70
8
 71
3
 72
8
 73
4
 74
0
 40
0
 40
0
 40
0
 40
0
 40
1
 40
1
 40
1
 40
1
 10
190.972000
 20
13.069500
 30
0.0
 10
190.251451
 20
13.069500
 30
0.0
 10
189.601851
 20
12.635451
 30
0.0
 10
189.326109
 20
11.969751
 30
0.0
  0
SPLINE
  5
131
100
AcDbEntity
  8
0
 62
7
100
AcDbSpline
 70
8
 71
3
 72
8
 73
4
 74
0
 40
0
 40
0
 40
0
 40
0
 40
1
 40
1
 40
1
 40
1
 10
189.326109
 20
11.969751
 30
0.0
 10
189.050366
 20
11.304050
 30
0.0
 10
189.202784
 20
10.537795
 30
0.0
 10
189.712289
 20
10.028289
 30
0.0
  0
SPLINE
  5
132
100
AcDbEntity
  8
0
 62
7
100
AcDbSpline
 70
8
 71
3
 72
8
 73
4
 74
0
 40
0
 40
0
 40
0
 40
0
 40
1
 40
1
 40
1
 40
1
 10
189.712289
 20
10.028289
 30
0.0
 10
190.221795
 20
9.518784
 30
0.0
 10
190.988050
 20
9.366366
 30
0.0
 10
191.653751
 20
9.642109
 30
0.0
  0
SPLINE
  5
133
100
AcDbEntity
  8
0
 62
7
100
AcDbSpline
 70
8
 71
3
 72
8
 73
4
 74
0
 40
0
 40
0
 40
0
 40
0
 40
1
 40
1
 40
1
 40
1
 10
191.653751
 20
9.642109
 30
0.0
 10
192.319451
 20
9.917851
 30
0.0
 10
192.753500
 20
10.567451
 30
0.0
 10
192.753500
 20
11.288000
 30
0.0
  0
SPLINE
  5
134
100
AcDbEntity
  8
0
 62
7
100
AcDbSpline
 70
8
 71
3
 72
8
 73
4
 74
0
 40
0
 40
0
 40
0
 40
0
 40
1
 40
1
 40
1
 40
1
 10
192.753500
 20
11.288000
 30
0.0
 10
192.753500
 20
11.760483
 30
0.0
 10
192.565807
 20
12.213615
 30
0.0
 10
192.231711
 20
12.547711
 30
0.0
  0
SPLINE
  5
135
100
AcDbEntity
  8
0
 62
7
100
AcDbSpline
 70
8
 71
3
 72
8
 73
4
 74
0
 40
0
 40
0
 40
0
 40
0
 40
1
 40
1
 40
1
 40
1
 10
192.231711
 20
12.547711
 30
0.0
 10
191.897615
 20
12.881807
 30
0.0
 10
191.444483
 20
13.069500
 30
0.0
 10
190.972000
 20
13.069500
 30
0.0
  0
LWPOLYLINE
  5
136
100
AcDbEntity
  8
0
 62
7
100
AcDbPolyline
 90
1
 70
1
 10
154.972000
 20
13.069500
 30
0.0
  0
SPLINE
  5
137
100
AcDbEntity
  8
0
 62
7
100
AcDbSpline
 70
8
 71
3
 72
8
 73
4
 74
0
 40
0
 40
0
 40
0
 40
0
 40
1
 40
1
 40
1
 40
1
 10
28.463000
 20
138.605000
 30
0.0
 10
28.810333
 20
140.574333
 30
0.0
 10
29.980667
 20
141.476667
 30
0.0
 10
31.974000
 20
141.312000
 30
0.0
  0
LWPOLYLINE
  5
138
100
AcDbEntity
  8
0
 62
7
100
AcDbPolyline
 90
1
 70
1
 10
190.972000
 20
13.069500
 30
0.0
  0
SPLINE
  5
139
100
AcDbEntity
  8
0
 62
7
100
AcDbSpline
 70
8
 71
3
 72
8
 73
4
 74
0
 40
0
 40
0
 40
0
 40
0
 40
1
 40
1
 40
1
 40
1
 10
90.269000
 20
136.492000
 30
0.0
 10
92.262333
 20
136.327333
 30
0.0
 10
94.243667
 20
136.071333
 30
0.0
 10
96.213000
 20
135.724000
 30
0.0
  0
LWPOLYLINE
  5
13a
100
AcDbEntity
  8
0
 62
7
100
AcDbPolyline
 90
2
 70
0
 10
31.974000
 20
141.312000
 30
0.0
 10
90.269000
 20
136.492000
 30
0.0
  0
SPLINE
  5
13b
100
AcDbEntity
  8
0
 62
7
100
AcDbSpline
 70
8
 71
3
 72
8
 73
4
 74
0
 40
0
 40
0
 40
0
 40
0
 40
1
 40
1
 40
1
 40
1
 10
110.100000
 20
133.276000
 30
0.0
 10
112.069333
 20
132.928667
 30
0.0
 10
113.986333
 20
132.393667
 30
0.0
 10
115.851000
 20
131.671000
 30
0.0
  0
LWPOLYLINE
  5
13c
100
AcDbEntity
  8
0
 62
7
100
AcDbPolyline
 90
2
 70
0
 10
96.213000
 20
135.724000
 30
0.0
 10
110.100000
 20
133.276000
 30
0.0
  0
SPLINE
  5
13d
100
AcDbEntity
  8
0
 62
7
100
AcDbSpline
 70
8
 71
3
 72
8
 73
4
 74
0
 40
0
 40
0
 40
0
 40
0
 40
1
 40
1
 40
1
 40
1
 10
153.192000
 20
117.202000
 30
0.0
 10
155.056667
 20
116.479333
 30
0.0
 10
156.989000
 20
116.118000
 30
0.0
 10
158.989000
 20
116.118000
 30
0.0
  0
LWPOLYLINE
  5
13e
100
AcDbEntity
  8
0
 62
7
100
AcDbPolyline
 90
2
 70
0
 10
115.851000
 20
131.671000
 30
0.0
 10
153.192000
 20
117.202000
 30
0.0
  0
SPLINE
  5
13f
100
AcDbEntity
  8
0
 62
7
100
AcDbSpline
 70
8
 71
3
 72
8
 73
4
 74
0
 40
0
 40
0
 40
0
 40
0
 40
1
 40
1
 40
1
 40
1
 10
159.972000
 20
116.118000
 30
0.0
 10
161.972000
 20
116.118000
 30
0.0
 10
163.383000
 20
115.206333
 30
0.0
 10
164.205000
 20
113.383000
 30
0.0
  0
LWPOLYLINE
  5
140
100
AcDbEntity
  8
0
 62
7
100
AcDbPolyline
 90
2
 70
0
 10
158.989000
 20
116.118000
 30
0.0
 10
159.972000
 20
116.118000
 30
0.0
  0
SPLINE
  5
141
100
AcDbEntity
  8
0
 62
7
100
AcDbSpline
 70
8
 71
3
 72
8
 73
4
 74
0
 40
0
 40
0
 40
0
 40
0
 40
1
 40
1
 40
1
 40
1
 10
181.739000
 20
113.383000
 30
0.0
 10
182.561000
 20
115.206333
 30
0.0
 10
183.972000
 20
116.118000
 30
0.0
 10
185.972000
 20
116.118000
 30
0.0
  0
LWPOLYLINE
  5
142
100
AcDbEntity
  8
0
 62
7
100
AcDbPolyline
 90
22
 70
0
 10
164.205000
 20
113.383000
 30
0.0
 10
165.472000
 20
110.571000
 30
0.0
 10
146.870000
 20
110.571000
 30
0.0
 10
111.340000
 20
127.980000
 30
0.0
 10
93.307000
 20
131.160000
 30
0.0
 10
34.697000
 20
133.238000
 30
0.0
 10
17.998000
 20
38.530000
 30
0.0
 10
55.543000
 20
31.910000
 30
0.0
 10
112.239000
 20
18.866000
 30
0.0
 10
149.258000
 20
12.338000
 30
0.0
 10
153.435000
 20
15.263000
 30
0.0
 10
192.509000
 20
15.263000
 30
0.0
 10
196.686000
 20
12.338000
 30
0.0
 10
233.705000
 20
18.866000
 30
0.0
 10
290.401000
 20
31.910000
 30
0.0
 10
327.946000
 20
38.530000
 30
0.0
 10
311.247000
 20
133.238000
 30
0.0
 10
252.637000
 20
131.160000
 30
0.0
 10
234.604000
 20
127.980000
 30
0.0
 10
199.074000
 20
110.571000
 30
0.0
 10
180.472000
 20
110.571000
 30
0.0
 10
181.739000
 20
113.383000
 30
0.0
  0
SPLINE
  5
143
100
AcDbEntity
  8
0
 62
7
100
AcDbSpline
 70
8
 71
3
 72
8
 73
4
 74
0
 40
0
 40
0
 40
0
 40
0
 40
1
 40
1
 40
1
 40
1
 10
186.955000
 20
116.118000
 30
0.0
 10
188.955000
 20
116.118000
 30
0.0
 10
190.887333
 20
116.479333
 30
0.0
 10
192.752000
 20
117.202000
 30
0.0
  0
LWPOLYLINE
  5
144
100
AcDbEntity
  8
0
 62
7
100
AcDbPolyline
 90
2
 70
0
 10
185.972000
 20
116.118000
 30
0.0
 10
186.955000
 20
116.118000
 30
0.0
  0
SPLINE
  5
145
100
AcDbEntity
  8
0
 62
7
100
AcDbSpline
 70
8
 71
3
 72
8
 73
4
 74
0
 40
0
 40
0
 40
0
 40
0
 40
1
 40
1
 40
1
 40
1
 10
230.093000
 20
131.671000
 30
0.0
 10
231.957667
 20
132.393667
 30
0.0
 10
233.874667
 20
132.928667
 30
0.0
 10
235.844000
 20
133.276000
 30
0.0
  0
LWPOLYLINE
  5
146
100
AcDbEntity
  8
0
 62
7
100
AcDbPolyline
 90
2
 70
0
 10
192.752000
 20
117.202000
 30
0.0
 10
230.093000
 20
131.671000
 30
0.0
  0
SPLINE
  5
147
100
AcDbEntity
  8
0
 62
7
100
AcDbSpline
 70
8
 71
3
 72
8
 73
4
 74
0
 40
0
 40
0
 40
0
 40
0
 40
1
 40
1
 40
1
 40
1
 10
249.731000
 20
135.724000
 30
0.0
 10
251.700333
 20
136.071333
 30
0.0
 10
253.681667
 20
136.327333
 30
0.0
 10
255.675000
 20
136.492000
 30
0.0
  0
LWPOLYLINE
  5
148
100
AcDbEntity
  8
0
 62
7
100
AcDbPolyline
 90
2
 70
0
 10
235.844000
 20
133.276000
 30
0.0
 10
249.731000
 20
135.724000
 30
0.0
  0
SPLINE
  5
149
100
AcDbEntity
  8
0
 62
7
100
AcDbSpline
 70
8
 71
3
 72
8
 73
4
 74
0
 40
0
 40
0
 40
0
 40
0
 40
1
 40
1
 40
1
 40
1
 10
313.970000
 20
141.312000
 30
0.0
 10
315.963333
 20
141.476667
 30
0.0
 10
317.133667
 20
140.574333
 30
0.0
 10
317.481000
 20
138.605000
 30
0.0
  0
LWPOLYLINE
  5
14a
100
AcDbEntity
  8
0
 62
7
100
AcDbPolyline
 90
2
 70
0
 10
255.675000
 20
136.492000
 30
0.0
 10
313.970000
 20
141.312000
 30
0.0
  0
SPLINE
  5
14b
100
AcDbEntity
  8
0
 62
7
100
AcDbSpline
 70
8
 71
3
 72
8
 73
4
 74
0
 40
0
 40
0
 40
0
 40
0
 40
1
 40
1
 40
1
 40
1
 10
335.617000
 20
35.748000
 30
0.0
 10
335.964333
 20
33.778667
 30
0.0
 10
335.154333
 20
32.614000
 30
0.0
 10
333.187000
 20
32.254000
 30
0.0
  0
LWPOLYLINE
  5
14c
100
AcDbEntity
  8
0
 62
7
100
AcDbPolyline
 90
2
 70
0
 10
317.481000
 20
138.605000
 30
0.0
 10
335.617000
 20
35.748000
 30
0.0
  0
SPLINE
  5
14d
100
AcDbEntity
  8
0
 62
7
100
AcDbSpline
 70
8
 71
3
 72
8
 73
4
 74
0
 40
0
 40
0
 40
0
 40
0
 40
1
 40
1
 40
1
 40
1
 10
199.928000
 20
7.853000
 30
0.0
 10
197.960667
 20
7.493000
 30
0.0
 10
195.977000
 20
7.313000
 30
0.0
 10
193.977000
 20
7.313000
 30
0.0
  0
LWPOLYLINE
  5
14e
100
AcDbEntity
  8
0
 62
7
100
AcDbPolyline
 90
2
 70
0
 10
333.187000
 20
32.254000
 30
0.0
 10
199.928000
 20
7.853000
 30
0.0
  0
SPLINE
  5
14f
100
AcDbEntity
  8
0
 62
7
100
AcDbSpline
 70
8
 71
3
 72
8
 73
4
 74
0
 40
0
 40
0
 40
0
 40
0
 40
1
 40
1
 40
1
 40
1
 10
151.967000
 20
7.313000
 30
0.0
 10
149.967000
 20
7.313000
 30
0.0
 10
147.983333
 20
7.493000
 30
0.0
 10
146.016000
 20
7.853000
 30
0.0
  0
LWPOLYLINE
  5
150
100
AcDbEntity
  8
0
 62
7
100
AcDbPolyline
 90
2
 70
0
 10
193.977000
 20
7.313000
 30
0.0
 10
151.967000
 20
7.313000
 30
0.0
  0
SPLINE
  5
151
100
AcDbEntity
  8
0
 62
7
100
AcDbSpline
 70
8
 71
3
 72
8
 73
4
 74
0
 40
0
 40
0
 40
0
 40
0
 40
1
 40
1
 40
1
 40
1
 10
12.757000
 20
32.254000
 30
0.0
 10
10.789667
 20
32.614000
 30
0.0
 10
9.979667
 20
33.778667
 30
0.0
 10
10.327000
 20
35.748000
 30
0.0
  0
LWPOLYLINE
  5
152
100
AcDbEntity
  8
0
 62
7
100
AcDbPolyline
 90
2
 70
0
 10
146.016000
 20
7.853000
 30
0.0
 10
12.757000
 20
32.254000
 30
0.0
  0
LWPOLYLINE
  5
153
100
AcDbEntity
  8
0
 62
7
100
AcDbPolyline
 90
2
 70
0
 10
10.327000
 20
35.748000
 30
0.0
 10
28.463000
 20
138.605000
 30
0.0
  0
ENDSEC
  0
SECTION
  2
OBJECTS
  0
DICTIONARY
  5
C
330
0
100
AcDbDictionary
  3
ACAD_GROUP
350
D
  3
ACAD_MLINESTYLE
350
17
  0
DICTIONARY
  5
D
330
C
100
AcDbDictionary
  0
DICTIONARY
  5
1A
330
C
100
AcDbDictionary
  0
DICTIONARY
  5
17
330
C
100
AcDbDictionary
  3
STANDARD
350
18
  0
DICTIONARY
  5
19
330
C
100
AcDbDictionary
  0
ENDSEC
  0
EOF
