  0
SECTION
  2
HEADER
  9
$ACADVER
  1
AC1014
  9
$HANDSEED
  5
FFFF
  9
$MEASUREMENT
 70
     1
  0
ENDSEC
  0
SECTION
  2
TABLES
  0
TABLE
  2
VPORT
  5
8
330
0
100
AcDbSymbolTable
 70
     4
  0
VPORT
  5
2E
330
8
100
AcDbSymbolTableRecord
100
AcDbViewportTableRecord
  2
*ACTIVE
 70
     0
 10
0.0
 20
0.0
 11
1.0
 21
1.0
 12
210.0
 22
148.5
 13
0.0
 23
0.0
 14
10.0
 24
10.0
 15
10.0
 25
10.0
 16
0.0
 26
0.0
 36
1.0
 17
0.0
 27
0.0
 37
0.0
 40
341.0
 41
1.24
 42
50.0
 43
0.0
 44
0.0
 50
0.0
 51
0.0
 71
     0
 72
   100
 73
     1
 74
     3
 75
     0
 76
     0
 77
     0
 78
     0
  0
ENDTAB
  0
TABLE
  2
LTYPE
  5
5
330
0
100
AcDbSymbolTable
 70
     1
  0
LTYPE
  5
14
330
5
100
AcDbSymbolTableRecord
100
AcDbLinetypeTableRecord
  2
BYBLOCK
 70
     0
  3

 72
    65
 73
     0
 40
0.0
  0
LTYPE
  5
15
330
5
100
AcDbSymbolTableRecord
100
AcDbLinetypeTableRecord
  2
BYLAYER
 70
     0
  3

 72
    65
 73
     0
 40
0.0
  0
LTYPE
  5
16
330
5
100
AcDbSymbolTableRecord
100
AcDbLinetypeTableRecord
  2
CONTINUOUS
 70
     0
  3
Solid line
 72
    65
 73
     0
 40
0.0
  0
ENDTAB
  0
TABLE
  2
LAYER
  5
2
100
AcDbSymbolTable
 70
1
  0
LAYER
  5
50
100
AcDbSymbolTableRecord
100
AcDbLayerTableRecord
  2
0
 70
0
  6
CONTINUOUS
  0
ENDTAB
  0
TABLE
  2
STYLE
  5
3
330
0
100
AcDbSymbolTable
 70
     1
  0
STYLE
  5
11
330
3
100
AcDbSymbolTableRecord
100
AcDbTextStyleTableRecord
  2
STANDARD
 70
     0
 40
0.0
 41
1.0
 50
0.0
 71
     0
 42
2.5
  3
txt
  4

  0
ENDTAB
  0
TABLE
  2
VIEW
  5
6
330
0
100
AcDbSymbolTable
 70
     0
  0
ENDTAB
  0
TABLE
  2
UCS
  5
7
330
0
100
AcDbSymbolTable
 70
     0
  0
ENDTAB
  0
TABLE
  2
APPID
  5
9
330
0
100
AcDbSymbolTable
 70
     2
  0
APPID
  5
12
330
9
100
AcDbSymbolTableRecord
100
AcDbRegAppTableRecord
  2
ACAD
 70
     0
  0
ENDTAB
  0
TABLE
  2
DIMSTYLE
  5
A
330
0
100
AcDbSymbolTable
 70
     1
  0
DIMSTYLE
105
27
330
A
100
AcDbSymbolTableRecord
100
AcDbDimStyleTableRecord
  2
ISO-25
 70
     0
  3

  4

  5

  6

  7

 40
1.0
 41
2.5
 42
0.625
 43
3.75
 44
1.25
 45
0.0
 46
0.0
 47
0.0
 48
0.0
140
2.5
141
2.5
142
0.0
143
0.03937007874016
144
1.0
145
0.0
146
1.0
147
0.625
 71
     0
 72
     0
 73
     0
 74
     0
 75
     0
 76
     0
 77
     1
 78
     8
170
     0
171
     3
172
     1
173
     0
174
     0
175
     0
176
     0
177
     0
178
     0
270
     2
271
     2
272
     2
273
     2
274
     3
340
11
275
     0
280
     0
281
     0
282
     0
283
     0
284
     8
285
     0
286
     0
287
     3
288
     0
  0
ENDTAB
  0
TABLE
  2
BLOCK_RECORD
  5
1
330
0
100
AcDbSymbolTable
 70
     1
  0
BLOCK_RECORD
  5
1F
330
1
100
AcDbSymbolTableRecord
100
AcDbBlockTableRecord
  2
*MODEL_SPACE
  0
BLOCK_RECORD
  5
1B
330
1
100
AcDbSymbolTableRecord
100
AcDbBlockTableRecord
  2
*PAPER_SPACE
  0
ENDTAB
  0
ENDSEC
  0
SECTION
  2
BLOCKS
  0
BLOCK
  5
20
330
1F
100
AcDbEntity
  8
0
100
AcDbBlockBegin
  2
*MODEL_SPACE
 70
     0
 10
0.0
 20
0.0
 30
0.0
  3
*MODEL_SPACE
  1

  0
ENDBLK
  5
21
330
1F
100
AcDbEntity
  8
0
100
AcDbBlockEnd
  0
BLOCK
  5
1C
330
1B
100
AcDbEntity
 67
     1
  8
0
100
AcDbBlockBegin
  2
*PAPER_SPACE
  1

  0
ENDBLK
  5
1D
330
1B
100
AcDbEntity
 67
     1
  8
0
100
AcDbBlockEnd
  0
ENDSEC
  0
SECTION
  2
ENTITIES
  0
SPLINE
  5
100
100
AcDbEntity
  8
0
 62
7
100
AcDbSpline
 70
8
 71
3
 72
8
 73
4
 74
0
 40
0
 40
0
 40
0
 40
0
 40
1
 40
1
 40
1
 40
1
 10
32.412000
 20
138.347900
 30
0.0
 10
31.691451
 20
138.347900
 30
0.0
 10
31.041851
 20
137.913851
 30
0.0
 10
30.766109
 20
137.248151
 30
0.0
  0
SPLINE
  5
101
100
AcDbEntity
  8
0
 62
7
100
AcDbSpline
 70
8
 71
3
 72
8
 73
4
 74
0
 40
0
 40
0
 40
0
 40
0
 40
1
 40
1
 40
1
 40
1
 10
30.766109
 20
137.248151
 30
0.0
 10
30.490366
 20
136.582450
 30
0.0
 10
30.642784
 20
135.816195
 30
0.0
 10
31.152289
 20
135.306689
 30
0.0
  0
SPLINE
  5
102
100
AcDbEntity
  8
0
 62
7
100
AcDbSpline
 70
8
 71
3
 72
8
 73
4
 74
0
 40
0
 40
0
 40
0
 40
0
 40
1
 40
1
 40
1
 40
1
 10
31.152289
 20
135.306689
 30
0.0
 10
31.661795
 20
134.797184
 30
0.0
 10
32.428050
 20
134.644766
 30
0.0
 10
33.093751
 20
134.920509
 30
0.0
  0
SPLINE
  5
103
100
AcDbEntity
  8
0
 62
7
100
AcDbSpline
 70
8
 71
3
 72
8
 73
4
 74
0
 40
0
 40
0
 40
0
 40
0
 40
1
 40
1
 40
1
 40
1
 10
33.093751
 20
134.920509
 30
0.0
 10
33.759451
 20
135.196251
 30
0.0
 10
34.193500
 20
135.845851
 30
0.0
 10
34.193500
 20
136.566400
 30
0.0
  0
SPLINE
  5
104
100
AcDbEntity
  8
0
 62
7
100
AcDbSpline
 70
8
 71
3
 72
8
 73
4
 74
0
 40
0
 40
0
 40
0
 40
0
 40
1
 40
1
 40
1
 40
1
 10
34.193500
 20
136.566400
 30
0.0
 10
34.193500
 20
137.038883
 30
0.0
 10
34.005807
 20
137.492015
 30
0.0
 10
33.671711
 20
137.826111
 30
0.0
  0
SPLINE
  5
105
100
AcDbEntity
  8
0
 62
7
100
AcDbSpline
 70
8
 71
3
 72
8
 73
4
 74
0
 40
0
 40
0
 40
0
 40
0
 40
1
 40
1
 40
1
 40
1
 10
33.671711
 20
137.826111
 30
0.0
 10
33.337615
 20
138.160207
 30
0.0
 10
32.884483
 20
138.347900
 30
0.0
 10
32.412000
 20
138.347900
 30
0.0
  0
SPLINE
  5
106
100
AcDbEntity
  8
0
 62
7
100
AcDbSpline
 70
8
 71
3
 72
8
 73
4
 74
0
 40
0
 40
0
 40
0
 40
0
 40
1
 40
1
 40
1
 40
1
 10
313.532000
 20
138.347900
 30
0.0
 10
312.811451
 20
138.347900
 30
0.0
 10
312.161851
 20
137.913851
 30
0.0
 10
311.886109
 20
137.248151
 30
0.0
  0
SPLINE
  5
107
100
AcDbEntity
  8
0
 62
7
100
AcDbSpline
 70
8
 71
3
 72
8
 73
4
 74
0
 40
0
 40
0
 40
0
 40
0
 40
1
 40
1
 40
1
 40
1
 10
311.886109
 20
137.248151
 30
0.0
 10
311.610366
 20
136.582450
 30
0.0
 10
311.762784
 20
135.816195
 30
0.0
 10
312.272289
 20
135.306689
 30
0.0
  0
SPLINE
  5
108
100
AcDbEntity
  8
0
 62
7
100
AcDbSpline
 70
8
 71
3
 72
8
 73
4
 74
0
 40
0
 40
0
 40
0
 40
0
 40
1
 40
1
 40
1
 40
1
 10
312.272289
 20
135.306689
 30
0.0
 10
312.781795
 20
134.797184
 30
0.0
 10
313.548050
 20
134.644766
 30
0.0
 10
314.213751
 20
134.920509
 30
0.0
  0
SPLINE
  5
109
100
AcDbEntity
  8
0
 62
7
100
AcDbSpline
 70
8
 71
3
 72
8
 73
4
 74
0
 40
0
 40
0
 40
0
 40
0
 40
1
 40
1
 40
1
 40
1
 10
314.213751
 20
134.920509
 30
0.0
 10
314.879451
 20
135.196251
 30
0.0
 10
315.313500
 20
135.845851
 30
0.0
 10
315.313500
 20
136.566400
 30
0.0
  0
SPLINE
  5
10a
100
AcDbEntity
  8
0
 62
7
100
AcDbSpline
 70
8
 71
3
 72
8
 73
4
 74
0
 40
0
 40
0
 40
0
 40
0
 40
1
 40
1
 40
1
 40
1
 10
315.313500
 20
136.566400
 30
0.0
 10
315.313500
 20
137.038883
 30
0.0
 10
315.125807
 20
137.492015
 30
0.0
 10
314.791711
 20
137.826111
 30
0.0
  0
SPLINE
  5
10b
100
AcDbEntity
  8
0
 62
7
100
AcDbSpline
 70
8
 71
3
 72
8
 73
4
 74
0
 40
0
 40
0
 40
0
 40
0
 40
1
 40
1
 40
1
 40
1
 10
314.791711
 20
137.826111
 30
0.0
 10
314.457615
 20
138.160207
 30
0.0
 10
314.004483
 20
138.347900
 30
0.0
 10
313.532000
 20
138.347900
 30
0.0
  0
LWPOLYLINE
  5
10c
100
AcDbEntity
  8
0
 62
7
100
AcDbPolyline
 90
1
 70
1
 10
32.412000
 20
138.347900
 30
0.0
  0
SPLINE
  5
10d
100
AcDbEntity
  8
0
 62
7
100
AcDbSpline
 70
8
 71
3
 72
8
 73
4
 74
0
 40
0
 40
0
 40
0
 40
0
 40
1
 40
1
 40
1
 40
1
 10
14.721000
 20
38.017100
 30
0.0
 10
14.000451
 20
38.017100
 30
0.0
 10
13.350851
 20
37.583051
 30
0.0
 10
13.075109
 20
36.917351
 30
0.0
  0
SPLINE
  5
10e
100
AcDbEntity
  8
0
 62
7
100
AcDbSpline
 70
8
 71
3
 72
8
 73
4
 74
0
 40
0
 40
0
 40
0
 40
0
 40
1
 40
1
 40
1
 40
1
 10
13.075109
 20
36.917351
 30
0.0
 10
12.799366
 20
36.251650
 30
0.0
 10
12.951784
 20
35.485395
 30
0.0
 10
13.461289
 20
34.975889
 30
0.0
  0
SPLINE
  5
10f
100
AcDbEntity
  8
0
 62
7
100
AcDbSpline
 70
8
 71
3
 72
8
 73
4
 74
0
 40
0
 40
0
 40
0
 40
0
 40
1
 40
1
 40
1
 40
1
 10
13.461289
 20
34.975889
 30
0.0
 10
13.970795
 20
34.466384
 30
0.0
 10
14.737050
 20
34.313966
 30
0.0
 10
15.402751
 20
34.589709
 30
0.0
  0
SPLINE
  5
110
100
AcDbEntity
  8
0
 62
7
100
AcDbSpline
 70
8
 71
3
 72
8
 73
4
 74
0
 40
0
 40
0
 40
0
 40
0
 40
1
 40
1
 40
1
 40
1
 10
15.402751
 20
34.589709
 30
0.0
 10
16.068451
 20
34.865451
 30
0.0
 10
16.502500
 20
35.515051
 30
0.0
 10
16.502500
 20
36.235600
 30
0.0
  0
SPLINE
  5
111
100
AcDbEntity
  8
0
 62
7
100
AcDbSpline
 70
8
 71
3
 72
8
 73
4
 74
0
 40
0
 40
0
 40
0
 40
0
 40
1
 40
1
 40
1
 40
1
 10
16.502500
 20
36.235600
 30
0.0
 10
16.502500
 20
36.708083
 30
0.0
 10
16.314807
 20
37.161215
 30
0.0
 10
15.980711
 20
37.495311
 30
0.0
  0
SPLINE
  5
112
100
AcDbEntity
  8
0
 62
7
100
AcDbSpline
 70
8
 71
3
 72
8
 73
4
 74
0
 40
0
 40
0
 40
0
 40
0
 40
1
 40
1
 40
1
 40
1
 10
15.980711
 20
37.495311
 30
0.0
 10
15.646615
 20
37.829407
 30
0.0
 10
15.193483
 20
38.017100
 30
0.0
 10
14.721000
 20
38.017100
 30
0.0
  0
LWPOLYLINE
  5
113
100
AcDbEntity
  8
0
 62
7
100
AcDbPolyline
 90
1
 70
1
 10
313.532000
 20
138.347900
 30
0.0
  0
SPLINE
  5
114
100
AcDbEntity
  8
0
 62
7
100
AcDbSpline
 70
8
 71
3
 72
8
 73
4
 74
0
 40
0
 40
0
 40
0
 40
0
 40
1
 40
1
 40
1
 40
1
 10
331.223000
 20
38.017100
 30
0.0
 10
330.502451
 20
38.017100
 30
0.0
 10
329.852851
 20
37.583051
 30
0.0
 10
329.577109
 20
36.917351
 30
0.0
  0
SPLINE
  5
115
100
AcDbEntity
  8
0
 62
7
100
AcDbSpline
 70
8
 71
3
 72
8
 73
4
 74
0
 40
0
 40
0
 40
0
 40
0
 40
1
 40
1
 40
1
 40
1
 10
329.577109
 20
36.917351
 30
0.0
 10
329.301366
 20
36.251650
 30
0.0
 10
329.453784
 20
35.485395
 30
0.0
 10
329.963289
 20
34.975889
 30
0.0
  0
SPLINE
  5
116
100
AcDbEntity
  8
0
 62
7
100
AcDbSpline
 70
8
 71
3
 72
8
 73
4
 74
0
 40
0
 40
0
 40
0
 40
0
 40
1
 40
1
 40
1
 40
1
 10
329.963289
 20
34.975889
 30
0.0
 10
330.472795
 20
34.466384
 30
0.0
 10
331.239050
 20
34.313966
 30
0.0
 10
331.904751
 20
34.589709
 30
0.0
  0
SPLINE
  5
117
100
AcDbEntity
  8
0
 62
7
100
AcDbSpline
 70
8
 71
3
 72
8
 73
4
 74
0
 40
0
 40
0
 40
0
 40
0
 40
1
 40
1
 40
1
 40
1
 10
331.904751
 20
34.589709
 30
0.0
 10
332.570451
 20
34.865451
 30
0.0
 10
333.004500
 20
35.515051
 30
0.0
 10
333.004500
 20
36.235600
 30
0.0
  0
SPLINE
  5
118
100
AcDbEntity
  8
0
 62
7
100
AcDbSpline
 70
8
 71
3
 72
8
 73
4
 74
0
 40
0
 40
0
 40
0
 40
0
 40
1
 40
1
 40
1
 40
1
 10
333.004500
 20
36.235600
 30
0.0
 10
333.004500
 20
36.708083
 30
0.0
 10
332.816807
 20
37.161215
 30
0.0
 10
332.482711
 20
37.495311
 30
0.0
  0
SPLINE
  5
119
100
AcDbEntity
  8
0
 62
7
100
AcDbSpline
 70
8
 71
3
 72
8
 73
4
 74
0
 40
0
 40
0
 40
0
 40
0
 40
1
 40
1
 40
1
 40
1
 10
332.482711
 20
37.495311
 30
0.0
 10
332.148615
 20
37.829407
 30
0.0
 10
331.695483
 20
38.017100
 30
0.0
 10
331.223000
 20
38.017100
 30
0.0
  0
LWPOLYLINE
  5
11a
100
AcDbEntity
  8
0
 62
7
100
AcDbPolyline
 90
1
 70
1
 10
14.721000
 20
38.017100
 30
0.0
  0
SPLINE
  5
11b
100
AcDbEntity
  8
0
 62
7
100
AcDbSpline
 70
8
 71
3
 72
8
 73
4
 74
0
 40
0
 40
0
 40
0
 40
0
 40
1
 40
1
 40
1
 40
1
 10
148.870000
 20
116.252500
 30
0.0
 10
148.149451
 20
116.252500
 30
0.0
 10
147.499851
 20
115.818451
 30
0.0
 10
147.224109
 20
115.152751
 30
0.0
  0
SPLINE
  5
11c
100
AcDbEntity
  8
0
 62
7
100
AcDbSpline
 70
8
 71
3
 72
8
 73
4
 74
0
 40
0
 40
0
 40
0
 40
0
 40
1
 40
1
 40
1
 40
1
 10
147.224109
 20
115.152751
 30
0.0
 10
146.948366
 20
114.487050
 30
0.0
 10
147.100784
 20
113.720795
 30
0.0
 10
147.610289
 20
113.211289
 30
0.0
  0
SPLINE
  5
11d
100
AcDbEntity
  8
0
 62
7
100
AcDbSpline
 70
8
 71
3
 72
8
 73
4
 74
0
 40
0
 40
0
 40
0
 40
0
 40
1
 40
1
 40
1
 40
1
 10
147.610289
 20
113.211289
 30
0.0
 10
148.119795
 20
112.701784
 30
0.0
 10
148.886050
 20
112.549366
 30
0.0
 10
149.551751
 20
112.825109
 30
0.0
  0
SPLINE
  5
11e
100
AcDbEntity
  8
0
 62
7
100
AcDbSpline
 70
8
 71
3
 72
8
 73
4
 74
0
 40
0
 40
0
 40
0
 40
0
 40
1
 40
1
 40
1
 40
1
 10
149.551751
 20
112.825109
 30
0.0
 10
150.217451
 20
113.100851
 30
0.0
 10
150.651500
 20
113.750451
 30
0.0
 10
150.651500
 20
114.471000
 30
0.0
  0
SPLINE
  5
11f
100
AcDbEntity
  8
0
 62
7
100
AcDbSpline
 70
8
 71
3
 72
8
 73
4
 74
0
 40
0
 40
0
 40
0
 40
0
 40
1
 40
1
 40
1
 40
1
 10
150.651500
 20
114.471000
 30
0.0
 10
150.651500
 20
114.943483
 30
0.0
 10
150.463807
 20
115.396615
 30
0.0
 10
150.129711
 20
115.730711
 30
0.0
  0
SPLINE
  5
120
100
AcDbEntity
  8
0
 62
7
100
AcDbSpline
 70
8
 71
3
 72
8
 73
4
 74
0
 40
0
 40
0
 40
0
 40
0
 40
1
 40
1
 40
1
 40
1
 10
150.129711
 20
115.730711
 30
0.0
 10
149.795615
 20
116.064807
 30
0.0
 10
149.342483
 20
116.252500
 30
0.0
 10
148.870000
 20
116.252500
 30
0.0
  0
LWPOLYLINE
  5
121
100
AcDbEntity
  8
0
 62
7
100
AcDbPolyline
 90
1
 70
1
 10
331.223000
 20
38.017100
 30
0.0
  0
SPLINE
  5
122
100
AcDbEntity
  8
0
 62
7
100
AcDbSpline
 70
8
 71
3
 72
8
 73
4
 74
0
 40
0
 40
0
 40
0
 40
0
 40
1
 40
1
 40
1
 40
1
 10
197.074000
 20
116.252500
 30
0.0
 10
196.353451
 20
116.252500
 30
0.0
 10
195.703851
 20
115.818451
 30
0.0
 10
195.428109
 20
115.152751
 30
0.0
  0
SPLINE
  5
123
100
AcDbEntity
  8
0
 62
7
100
AcDbSpline
 70
8
 71
3
 72
8
 73
4
 74
0
 40
0
 40
0
 40
0
 40
0
 40
1
 40
1
 40
1
 40
1
 10
195.428109
 20
115.152751
 30
0.0
 10
195.152366
 20
114.487050
 30
0.0
 10
195.304784
 20
113.720795
 30
0.0
 10
195.814289
 20
113.211289
 30
0.0
  0
SPLINE
  5
124
100
AcDbEntity
  8
0
 62
7
100
AcDbSpline
 70
8
 71
3
 72
8
 73
4
 74
0
 40
0
 40
0
 40
0
 40
0
 40
1
 40
1
 40
1
 40
1
 10
195.814289
 20
113.211289
 30
0.0
 10
196.323795
 20
112.701784
 30
0.0
 10
197.090050
 20
112.549366
 30
0.0
 10
197.755751
 20
112.825109
 30
0.0
  0
SPLINE
  5
125
100
AcDbEntity
  8
0
 62
7
100
AcDbSpline
 70
8
 71
3
 72
8
 73
4
 74
0
 40
0
 40
0
 40
0
 40
0
 40
1
 40
1
 40
1
 40
1
 10
197.755751
 20
112.825109
 30
0.0
 10
198.421451
 20
113.100851
 30
0.0
 10
198.855500
 20
113.750451
 30
0.0
 10
198.855500
 20
114.471000
 30
0.0
  0
SPLINE
  5
126
100
AcDbEntity
  8
0
 62
7
100
AcDbSpline
 70
8
 71
3
 72
8
 73
4
 74
0
 40
0
 40
0
 40
0
 40
0
 40
1
 40
1
 40
1
 40
1
 10
198.855500
 20
114.471000
 30
0.0
 10
198.855500
 20
114.943483
 30
0.0
 10
198.667807
 20
115.396615
 30
0.0
 10
198.333711
 20
115.730711
 30
0.0
  0
SPLINE
  5
127
100
AcDbEntity
  8
0
 62
7
100
AcDbSpline
 70
8
 71
3
 72
8
 73
4
 74
0
 40
0
 40
0
 40
0
 40
0
 40
1
 40
1
 40
1
 40
1
 10
198.333711
 20
115.730711
 30
0.0
 10
197.999615
 20
116.064807
 30
0.0
 10
197.546483
 20
116.252500
 30
0.0
 10
197.074000
 20
116.252500
 30
0.0
  0
LWPOLYLINE
  5
128
100
AcDbEntity
  8
0
 62
7
100
AcDbPolyline
 90
1
 70
1
 10
148.870000
 20
116.252500
 30
0.0
  0
SPLINE
  5
129
100
AcDbEntity
  8
0
 62
7
100
AcDbSpline
 70
8
 71
3
 72
8
 73
4
 74
0
 40
0
 40
0
 40
0
 40
0
 40
1
 40
1
 40
1
 40
1
 10
154.972000
 20
13.069500
 30
0.0
 10
154.251451
 20
13.069500
 30
0.0
 10
153.601851
 20
12.635451
 30
0.0
 10
153.326109
 20
11.969751
 30
0.0
  0
SPLINE
  5
12a
100
AcDbEntity
  8
0
 62
7
100
AcDbSpline
 70
8
 71
3
 72
8
 73
4
 74
0
 40
0
 40
0
 40
0
 40
0
 40
1
 40
1
 40
1
 40
1
 10
153.326109
 20
11.969751
 30
0.0
 10
153.050366
 20
11.304050
 30
0.0
 10
153.202784
 20
10.537795
 30
0.0
 10
153.712289
 20
10.028289
 30
0.0
  0
SPLINE
  5
12b
100
AcDbEntity
  8
0
 62
7
100
AcDbSpline
 70
8
 71
3
 72
8
 73
4
 74
0
 40
0
 40
0
 40
0
 40
0
 40
1
 40
1
 40
1
 40
1
 10
153.712289
 20
10.028289
 30
0.0
 10
154.221795
 20
9.518784
 30
0.0
 10
154.988050
 20
9.366366
 30
0.0
 10
155.653751
 20
9.642109
 30
0.0
  0
SPLINE
  5
12c
100
AcDbEntity
  8
0
 62
7
100
AcDbSpline
 70
8
 71
3
 72
8
 73
4
 74
0
 40
0
 40
0
 40
0
 40
0
 40
1
 40
1
 40
1
 40
1
 10
155.653751
 20
9.642109
 30
0.0
 10
156.319451
 20
9.917851
 30
0.0
 10
156.753500
 20
10.567451
 30
0.0
 10
156.753500
 20
11.288000
 30
0.0
  0
SPLINE
  5
12d
100
AcDbEntity
  8
0
 62
7
100
AcDbSpline
 70
8
 71
3
 72
8
 73
4
 74
0
 40
0
 40
0
 40
0
 40
0
 40
1
 40
1
 40
1
 40
1
 10
156.753500
 20
11.288000
 30
0.0
 10
156.753500
 20
11.760483
 30
0.0
 10
156.565807
 20
12.213615
 30
0.0
 10
156.231711
 20
12.547711
 30
0.0
  0
SPLINE
  5
12e
100
AcDbEntity
  8
0
 62
7
100
AcDbSpline
 70
8
 71
3
 72
8
 73
4
 74
0
 40
0
 40
0
 40
0
 40
0
 40
1
 40
1
 40
1
 40
1
 10
156.231711
 20
12.547711
 30
0.0
 10
155.897615
 20
12.881807
 30
0.0
 10
155.444483
 20
13.069500
 30
0.0
 10
154.972000
 20
13.069500
 30
0.0
  0
LWPOLYLINE
  5
12f
100
AcDbEntity
  8
0
 62
7
100
AcDbPolyline
 90
1
 70
1
 10
197.074000
 20
116.252500
 30
0.0
  0
SPLINE
  5
130
100
AcDbEntity
  8
0
 62
7
100
AcDbSpline
 70
8
 71
3
 72
8
 73
4
 74
0
 40
0
 40
0
 40
0
 40
0
 40
1
 40
1
 40
1
 40
1
 10
190.972000
 20
13.069500
 30
0.0
 10
190.251451
 20
13.069500
 30
0.0
 10
189.601851
 20
12.635451
 30
0.0
 10
189.326109
 20
11.969751
 30
0.0
  0
SPLINE
  5
131
100
AcDbEntity
  8
0
 62
7
100
AcDbSpline
 70
8
 71
3
 72
8
 73
4
 74
0
 40
0
 40
0
 40
0
 40
0
 40
1
 40
1
 40
1
 40
1
 10
189.326109
 20
11.969751
 30
0.0
 10
189.050366
 20
11.304050
 30
0.0
 10
189.202784
 20
10.537795
 30
0.0
 10
189.712289
 20
10.028289
 30
0.0
  0
SPLINE
  5
132
100
AcDbEntity
  8
0
 62
7
100
AcDbSpline
 70
8
 71
3
 72
8
 73
4
 74
0
 40
0
 40
0
 40
0
 40
0
 40
1
 40
1
 40
1
 40
1
 10
189.712289
 20
10.028289
 30
0.0
 10
190.221795
 20
9.518784
 30
0.0
 10
190.988050
 20
9.366366
 30
0.0
 10
191.653751
 20
9.642109
 30
0.0
  0
SPLINE
  5
133
100
AcDbEntity
  8
0
 62
7
100
AcDbSpline
 70
8
 71
3
 72
8
 73
4
 74
0
 40
0
 40
0
 40
0
 40
0
 40
1
 40
1
 40
1
 40
1
 10
191.653751
 20
9.642109
 30
0.0
 10
192.319451
 20
9.917851
 30
0.0
 10
192.753500
 20
10.567451
 30
0.0
 10
192.753500
 20
11.288000
 30
0.0
  0
SPLINE
  5
134
100
AcDbEntity
  8
0
 62
7
100
AcDbSpline
 70
8
 71
3
 72
8
 73
4
 74
0
 40
0
 40
0
 40
0
 40
0
 40
1
 40
1
 40
1
 40
1
 10
192.753500
 20
11.288000
 30
0.0
 10
192.753500
 20
11.760483
 30
0.0
 10
192.565807
 20
12.213615
 30
0.0
 10
192.231711
 20
12.547711
 30
0.0
  0
SPLINE
  5
135
100
AcDbEntity
  8
0
 62
7
100
AcDbSpline
 70
8
 71
3
 72
8
 73
4
 74
0
 40
0
 40
0
 40
0
 40
0
 40
1
 40
1
 40
1
 40
1
 10
192.231711
 20
12.547711
 30
0.0
 10
191.897615
 20
12.881807
 30
0.0
 10
191.444483
 20
13.069500
 30
0.0
 10
190.972000
 20
13.069500
 30
0.0
  0
LWPOLYLINE
  5
136
100
AcDbEntity
  8
0
 62
7
100
AcDbPolyline
 90
1
 70
1
 10
154.972000
 20
13.069500
 30
0.0
  0
SPLINE
  5
137
100
AcDbEntity
  8
0
 62
7
100
AcDbSpline
 70
8
 71
3
 72
8
 73
4
 74
0
 40
0
 40
0
 40
0
 40
0
 40
1
 40
1
 40
1
 40
1
 10
28.463000
 20
138.605000
 30
0.0
 10
28.810333
 20
140.574333
 30
0.0
 10
29.980667
 20
141.476667
 30
0.0
 10
31.974000
 20
141.312000
 30
0.0
  0
LWPOLYLINE
  5
138
100
AcDbEntity
  8
0
 62
7
100
AcDbPolyline
 90
1
 70
1
 10
190.972000
 20
13.069500
 30
0.0
  0
SPLINE
  5
139
100
AcDbEntity
  8
0
 62
7
100
AcDbSpline
 70
8
 71
3
 72
8
 73
4
 74
0
 40
0
 40
0
 40
0
 40
0
 40
1
 40
1
 40
1
 40
1
 10
90.269000
 20
136.492000
 30
0.0
 10
92.262333
 20
136.327333
 30
0.0
 10
94.243667
 20
136.071333
 30
0.0
 10
96.213000
 20
135.724000
 30
0.0
  0
LWPOLYLINE
  5
13a
100
AcDbEntity
  8
0
 62
7
100
AcDbPolyline
 90
2
 70
0
 10
31.974000
 20
141.312000
 30
0.0
 10
90.269000
 20
136.492000
 30
0.0
  0
SPLINE
  5
13b
100
AcDbEntity
  8
0
 62
7
100
AcDbSpline
 70
8
 71
3
 72
8
 73
4
 74
0
 40
0
 40
0
 40
0
 40
0
 40
1
 40
1
 40
1
 40
1
 10
110.100000
 20
133.276000
 30
0.0
 10
112.069333
 20
132.928667
 30
0.0
 10
113.986333
 20
132.393667
 30
0.0
 10
115.851000
 20
131.671000
 30
0.0
  0
LWPOLYLINE
  5
13c
100
AcDbEntity
  8
0
 62
7
100
AcDbPolyline
 90
2
 70
0
 10
96.213000
 20
135.724000
 30
0.0
 10
110.100000
 20
133.276000
 30
0.0
  0
SPLINE
  5
13d
100
AcDbEntity
  8
0
 62
7
100
AcDbSpline
 70
8
 71
3
 72
8
 73
4
 74
0
 40
0
 40
0
 40
0
 40
0
 40
1
 40
1
 40
1
 40
1
 10
153.192000
 20
117.202000
 30
0.0
 10
155.056667
 20
116.479333
 30
0.0
 10
156.989000
 20
116.118000
 30
0.0
 10
158.989000
 20
116.118000
 30
0.0
  0
LWPOLYLINE
  5
13e
100
AcDbEntity
  8
0
 62
7
100
AcDbPolyline
 90
2
 70
0
 10
115.851000
 20
131.671000
 30
0.0
 10
153.192000
 20
117.202000
 30
0.0
  0
SPLINE
  5
13f
100
AcDbEntity
  8
0
 62
7
100
AcDbSpline
 70
8
 71
3
 72
8
 73
4
 74
0
 40
0
 40
0
 40
0
 40
0
 40
1
 40
1
 40
1
 40
1
 10
159.972000
 20
116.118000
 30
0.0
 10
161.972000
 20
116.118000
 30
0.0
 10
163.383000
 20
115.206333
 30
0.0
 10
164.205000
 20
113.383000
 30
0.0
  0
LWPOLYLINE
  5
140
100
AcDbEntity
  8
0
 62
7
100
AcDbPolyline
 90
2
 70
0
 10
158.989000
 20
116.118000
 30
0.0
 10
159.972000
 20
116.118000
 30
0.0
  0
SPLINE
  5
141
100
AcDbEntity
  8
0
 62
7
100
AcDbSpline
 70
8
 71
3
 72
8
 73
4
 74
0
 40
0
 40
0
 40
0
 40
0
 40
1
 40
1
 40
1
 40
1
 10
181.739000
 20
113.383000
 30
0.0
 10
182.561000
 20
115.206333
 30
0.0
 10
183.972000
 20
116.118000
 30
0.0
 10
185.972000
 20
116.118000
 30
0.0
  0
LWPOLYLINE
  5
142
100
AcDbEntity
  8
0
 62
7
100
AcDbPolyline
 90
8
 70
0
 10
164.205000
 20
113.383000
 30
0.0
 10
165.472000
 20
110.571000
 30
0.0
 10
162.972000
 20
110.571000
 30
0.0
 10
162.972000
 20
75.571000
 30
0.0
 10
182.972000
 20
75.571000
 30
0.0
 10
182.972000
 20
110.571000
 30
0.0
 10
180.472000
 20
110.571000
 30
0.0
 10
181.739000
 20
113.383000
 30
0.0
  0
SPLINE
  5
143
100
AcDbEntity
  8
0
 62
7
100
AcDbSpline
 70
8
 71
3
 72
8
 73
4
 74
0
 40
0
 40
0
 40
0
 40
0
 40
1
 40
1
 40
1
 40
1
 10
186.955000
 20
116.118000
 30
0.0
 10
188.955000
 20
116.118000
 30
0.0
 10
190.887333
 20
116.479333
 30
0.0
 10
192.752000
 20
117.202000
 30
0.0
  0
LWPOLYLINE
  5
144
100
AcDbEntity
  8
0
 62
7
100
AcDbPolyline
 90
2
 70
0
 10
185.972000
 20
116.118000
 30
0.0
 10
186.955000
 20
116.118000
 30
0.0
  0
SPLINE
  5
145
100
AcDbEntity
  8
0
 62
7
100
AcDbSpline
 70
8
 71
3
 72
8
 73
4
 74
0
 40
0
 40
0
 40
0
 40
0
 40
1
 40
1
 40
1
 40
1
 10
230.093000
 20
131.671000
 30
0.0
 10
231.957667
 20
132.393667
 30
0.0
 10
233.874667
 20
132.928667
 30
0.0
 10
235.844000
 20
133.276000
 30
0.0
  0
LWPOLYLINE
  5
146
100
AcDbEntity
  8
0
 62
7
100
AcDbPolyline
 90
2
 70
0
 10
192.752000
 20
117.202000
 30
0.0
 10
230.093000
 20
131.671000
 30
0.0
  0
SPLINE
  5
147
100
AcDbEntity
  8
0
 62
7
100
AcDbSpline
 70
8
 71
3
 72
8
 73
4
 74
0
 40
0
 40
0
 40
0
 40
0
 40
1
 40
1
 40
1
 40
1
 10
249.731000
 20
135.724000
 30
0.0
 10
251.700333
 20
136.071333
 30
0.0
 10
253.681667
 20
136.327333
 30
0.0
 10
255.675000
 20
136.492000
 30
0.0
  0
LWPOLYLINE
  5
148
100
AcDbEntity
  8
0
 62
7
100
AcDbPolyline
 90
2
 70
0
 10
235.844000
 20
133.276000
 30
0.0
 10
249.731000
 20
135.724000
 30
0.0
  0
SPLINE
  5
149
100
AcDbEntity
  8
0
 62
7
100
AcDbSpline
 70
8
 71
3
 72
8
 73
4
 74
0
 40
0
 40
0
 40
0
 40
0
 40
1
 40
1
 40
1
 40
1
 10
313.970000
 20
141.312000
 30
0.0
 10
315.963333
 20
141.476667
 30
0.0
 10
317.133667
 20
140.574333
 30
0.0
 10
317.481000
 20
138.605000
 30
0.0
  0
LWPOLYLINE
  5
14a
100
AcDbEntity
  8
0
 62
7
100
AcDbPolyline
 90
2
 70
0
 10
255.675000
 20
136.492000
 30
0.0
 10
313.970000
 20
141.312000
 30
0.0
  0
SPLINE
  5
14b
100
AcDbEntity
  8
0
 62
7
100
AcDbSpline
 70
8
 71
3
 72
8
 73
4
 74
0
 40
0
 40
0
 40
0
 40
0
 40
1
 40
1
 40
1
 40
1
 10
335.617000
 20
35.748000
 30
0.0
 10
335.964333
 20
33.778667
 30
0.0
 10
335.154333
 20
32.614000
 30
0.0
 10
333.187000
 20
32.254000
 30
0.0
  0
LWPOLYLINE
  5
14c
100
AcDbEntity
  8
0
 62
7
100
AcDbPolyline
 90
2
 70
0
 10
317.481000
 20
138.605000
 30
0.0
 10
335.617000
 20
35.748000
 30
0.0
  0
SPLINE
  5
14d
100
AcDbEntity
  8
0
 62
7
100
AcDbSpline
 70
8
 71
3
 72
8
 73
4
 74
0
 40
0
 40
0
 40
0
 40
0
 40
1
 40
1
 40
1
 40
1
 10
199.928000
 20
7.853000
 30
0.0
 10
197.960667
 20
7.493000
 30
0.0
 10
195.977000
 20
7.313000
 30
0.0
 10
193.977000
 20
7.313000
 30
0.0
  0
LWPOLYLINE
  5
14e
100
AcDbEntity
  8
0
 62
7
100
AcDbPolyline
 90
2
 70
0
 10
333.187000
 20
32.254000
 30
0.0
 10
199.928000
 20
7.853000
 30
0.0
  0
SPLINE
  5
14f
100
AcDbEntity
  8
0
 62
7
100
AcDbSpline
 70
8
 71
3
 72
8
 73
4
 74
0
 40
0
 40
0
 40
0
 40
0
 40
1
 40
1
 40
1
 40
1
 10
151.967000
 20
7.313000
 30
0.0
 10
149.967000
 20
7.313000
 30
0.0
 10
147.983333
 20
7.493000
 30
0.0
 10
146.016000
 20
7.853000
 30
0.0
  0
LWPOLYLINE
  5
150
100
AcDbEntity
  8
0
 62
7
100
AcDbPolyline
 90
2
 70
0
 10
193.977000
 20
7.313000
 30
0.0
 10
151.967000
 20
7.313000
 30
0.0
  0
SPLINE
  5
151
100
AcDbEntity
  8
0
 62
7
100
AcDbSpline
 70
8
 71
3
 72
8
 73
4
 74
0
 40
0
 40
0
 40
0
 40
0
 40
1
 40
1
 40
1
 40
1
 10
12.757000
 20
32.254000
 30
0.0
 10
10.789667
 20
32.614000
 30
0.0
 10
9.979667
 20
33.778667
 30
0.0
 10
10.327000
 20
35.748000
 30
0.0
  0
LWPOLYLINE
  5
152
100
AcDbEntity
  8
0
 62
7
100
AcDbPolyline
 90
2
 70
0
 10
146.016000
 20
7.853000
 30
0.0
 10
12.757000
 20
32.254000
 30
0.0
  0
LWPOLYLINE
  5
153
100
AcDbEntity
  8
0
 62
7
100
AcDbPolyline
 90
2
 70
0
 10
10.327000
 20
35.748000
 30
0.0
 10
28.463000
 20
138.605000
 30
0.0
  0
LWPOLYLINE
  5
154
100
AcDbEntity
  8
0
 62
7
100
AcDbPolyline
 90
12
 70
1
 10
37.193972
 20
129.833340
 30
0.0
 10
50.981284
 20
127.402268
 30
0.0
 10
50.807636
 20
126.417460
 30
0.0
 10
51.595482
 20
126.278542
 30
0.0
 10
49.511706
 20
114.460846
 30
0.0
 10
48.723860
 20
114.599764
 30
0.0
 10
48.550212
 20
113.614956
 30
0.0
 10
34.762900
 20
116.046028
 30
0.0
 10
34.936548
 20
117.030836
 30
0.0
 10
34.148701
 20
117.169754
 30
0.0
 10
36.232477
 20
128.987450
 30
0.0
 10
37.020324
 20
128.848532
 30
0.0
  0
LWPOLYLINE
  5
155
100
AcDbEntity
  8
0
 62
7
100
AcDbPolyline
 90
12
 70
1
 10
33.885977
 20
111.072748
 30
0.0
 10
47.673289
 20
108.641676
 30
0.0
 10
47.499641
 20
107.656868
 30
0.0
 10
48.287488
 20
107.517949
 30
0.0
 10
46.203712
 20
95.700253
 30
0.0
 10
45.415865
 20
95.839172
 30
0.0
 10
45.242217
 20
94.854364
 30
0.0
 10
31.454905
 20
97.285436
 30
0.0
 10
31.628553
 20
98.270244
 30
0.0
 10
30.840707
 20
98.409162
 30
0.0
 10
32.924483
 20
110.226858
 30
0.0
 10
33.712329
 20
110.087940
 30
0.0
  0
LWPOLYLINE
  5
156
100
AcDbEntity
  8
0
 62
7
100
AcDbPolyline
 90
12
 70
1
 10
30.577983
 20
92.312155
 30
0.0
 10
44.365295
 20
89.881083
 30
0.0
 10
44.191647
 20
88.896275
 30
0.0
 10
44.979493
 20
88.757357
 30
0.0
 10
42.895717
 20
76.939661
 30
0.0
 10
42.107871
 20
77.078579
 30
0.0
 10
41.934223
 20
76.093771
 30
0.0
 10
28.146911
 20
78.524843
 30
0.0
 10
28.320559
 20
79.509651
 30
0.0
 10
27.532712
 20
79.648570
 30
0.0
 10
29.616488
 20
91.466266
 30
0.0
 10
30.404335
 20
91.327347
 30
0.0
  0
LWPOLYLINE
  5
157
100
AcDbEntity
  8
0
 62
7
100
AcDbPolyline
 90
12
 70
1
 10
27.269988
 20
73.551563
 30
0.0
 10
41.057300
 20
71.120491
 30
0.0
 10
40.883652
 20
70.135683
 30
0.0
 10
41.671499
 20
69.996764
 30
0.0
 10
39.587723
 20
58.179068
 30
0.0
 10
38.799876
 20
58.317987
 30
0.0
 10
38.626228
 20
57.333179
 30
0.0
 10
24.838916
 20
59.764251
 30
0.0
 10
25.012564
 20
60.749059
 30
0.0
 10
24.224718
 20
60.887977
 30
0.0
 10
26.308494
 20
72.705673
 30
0.0
 10
27.096340
 20
72.566755
 30
0.0
  0
LWPOLYLINE
  5
158
100
AcDbEntity
  8
0
 62
7
100
AcDbPolyline
 90
12
 70
1
 10
23.961994
 20
54.790970
 30
0.0
 10
37.749306
 20
52.359898
 30
0.0
 10
37.575658
 20
51.375090
 30
0.0
 10
38.363504
 20
51.236172
 30
0.0
 10
36.279728
 20
39.418476
 30
0.0
 10
35.491882
 20
39.557394
 30
0.0
 10
35.318234
 20
38.572586
 30
0.0
 10
21.530922
 20
41.003658
 30
0.0
 10
21.704570
 20
41.988466
 30
0.0
 10
20.916724
 20
42.127385
 30
0.0
 10
23.000500
 20
53.945081
 30
0.0
 10
23.788346
 20
53.806162
 30
0.0
  0
LWPOLYLINE
  5
159
100
AcDbEntity
  8
0
 62
7
100
AcDbPolyline
 90
12
 70
1
 10
55.954564
 20
126.525346
 30
0.0
 10
69.741876
 20
124.094274
 30
0.0
 10
69.568228
 20
123.109466
 30
0.0
 10
70.356074
 20
122.970547
 30
0.0
 10
68.272298
 20
111.152851
 30
0.0
 10
67.484452
 20
111.291770
 30
0.0
 10
67.310804
 20
110.306962
 30
0.0
 10
53.523492
 20
112.738034
 30
0.0
 10
53.697140
 20
113.722842
 30
0.0
 10
52.909294
 20
113.861760
 30
0.0
 10
54.993070
 20
125.679456
 30
0.0
 10
55.780916
 20
125.540538
 30
0.0
  0
LWPOLYLINE
  5
15a
100
AcDbEntity
  8
0
 62
7
100
AcDbPolyline
 90
12
 70
1
 10
52.646570
 20
107.764753
 30
0.0
 10
66.433882
 20
105.333681
 30
0.0
 10
66.260234
 20
104.348873
 30
0.0
 10
67.048080
 20
104.209955
 30
0.0
 10
64.964304
 20
92.392259
 30
0.0
 10
64.176458
 20
92.531177
 30
0.0
 10
64.002810
 20
91.546369
 30
0.0
 10
50.215498
 20
93.977441
 30
0.0
 10
50.389146
 20
94.962249
 30
0.0
 10
49.601299
 20
95.101168
 30
0.0
 10
51.685075
 20
106.918864
 30
0.0
 10
52.472922
 20
106.779945
 30
0.0
  0
LWPOLYLINE
  5
15b
100
AcDbEntity
  8
0
 62
7
100
AcDbPolyline
 90
12
 70
1
 10
49.338575
 20
89.004161
 30
0.0
 10
63.125887
 20
86.573089
 30
0.0
 10
62.952239
 20
85.588281
 30
0.0
 10
63.740086
 20
85.449362
 30
0.0
 10
61.656310
 20
73.631666
 30
0.0
 10
60.868463
 20
73.770585
 30
0.0
 10
60.694815
 20
72.785777
 30
0.0
 10
46.907503
 20
75.216849
 30
0.0
 10
47.081151
 20
76.201657
 30
0.0
 10
46.293305
 20
76.340575
 30
0.0
 10
48.377081
 20
88.158271
 30
0.0
 10
49.164927
 20
88.019353
 30
0.0
  0
LWPOLYLINE
  5
15c
100
AcDbEntity
  8
0
 62
7
100
AcDbPolyline
 90
12
 70
1
 10
46.030581
 20
70.243568
 30
0.0
 10
59.817893
 20
67.812496
 30
0.0
 10
59.644245
 20
66.827688
 30
0.0
 10
60.432091
 20
66.688770
 30
0.0
 10
58.348315
 20
54.871074
 30
0.0
 10
57.560469
 20
55.009992
 30
0.0
 10
57.386821
 20
54.025184
 30
0.0
 10
43.599509
 20
56.456256
 30
0.0
 10
43.773157
 20
57.441064
 30
0.0
 10
42.985310
 20
57.579983
 30
0.0
 10
45.069086
 20
69.397679
 30
0.0
 10
45.856933
 20
69.258760
 30
0.0
  0
LWPOLYLINE
  5
15d
100
AcDbEntity
  8
0
 62
7
100
AcDbPolyline
 90
12
 70
1
 10
42.722586
 20
51.482976
 30
0.0
 10
56.509898
 20
49.051904
 30
0.0
 10
56.336250
 20
48.067096
 30
0.0
 10
57.124097
 20
47.928178
 30
0.0
 10
55.040321
 20
36.110482
 30
0.0
 10
54.252474
 20
36.249400
 30
0.0
 10
54.078826
 20
35.264592
 30
0.0
 10
40.291514
 20
37.695664
 30
0.0
 10
40.465162
 20
38.680472
 30
0.0
 10
39.677316
 20
38.819390
 30
0.0
 10
41.761092
 20
50.637086
 30
0.0
 10
42.548938
 20
50.498168
 30
0.0
  0
LWPOLYLINE
  5
15e
100
AcDbEntity
  8
0
 62
7
100
AcDbPolyline
 90
12
 70
1
 10
75.236100
 20
126.171775
 30
0.0
 10
89.023412
 20
123.740703
 30
0.0
 10
88.849764
 20
122.755895
 30
0.0
 10
89.637611
 20
122.616977
 30
0.0
 10
87.553835
 20
110.799281
 30
0.0
 10
86.765988
 20
110.938199
 30
0.0
 10
86.592340
 20
109.953391
 30
0.0
 10
72.805028
 20
112.384463
 30
0.0
 10
72.978676
 20
113.369271
 30
0.0
 10
72.190830
 20
113.508190
 30
0.0
 10
74.274606
 20
125.325886
 30
0.0
 10
75.062452
 20
125.186967
 30
0.0
  0
LWPOLYLINE
  5
15f
100
AcDbEntity
  8
0
 62
7
100
AcDbPolyline
 90
12
 70
1
 10
71.928106
 20
107.411183
 30
0.0
 10
85.715418
 20
104.980111
 30
0.0
 10
85.541770
 20
103.995303
 30
0.0
 10
86.329616
 20
103.856384
 30
0.0
 10
84.245840
 20
92.038688
 30
0.0
 10
83.457994
 20
92.177607
 30
0.0
 10
83.284346
 20
91.192799
 30
0.0
 10
69.497034
 20
93.623871
 30
0.0
 10
69.670682
 20
94.608679
 30
0.0
 10
68.882836
 20
94.747597
 30
0.0
 10
70.966612
 20
106.565293
 30
0.0
 10
71.754458
 20
106.426375
 30
0.0
  0
LWPOLYLINE
  5
160
100
AcDbEntity
  8
0
 62
7
100
AcDbPolyline
 90
12
 70
1
 10
68.620112
 20
88.650590
 30
0.0
 10
82.407424
 20
86.219518
 30
0.0
 10
82.233776
 20
85.234710
 30
0.0
 10
83.021622
 20
85.095792
 30
0.0
 10
80.937846
 20
73.278096
 30
0.0
 10
80.150000
 20
73.417014
 30
0.0
 10
79.976352
 20
72.432206
 30
0.0
 10
66.189040
 20
74.863278
 30
0.0
 10
66.362688
 20
75.848086
 30
0.0
 10
65.574841
 20
75.987005
 30
0.0
 10
67.658617
 20
87.804701
 30
0.0
 10
68.446464
 20
87.665782
 30
0.0
  0
LWPOLYLINE
  5
161
100
AcDbEntity
  8
0
 62
7
100
AcDbPolyline
 90
12
 70
1
 10
65.312117
 20
69.889998
 30
0.0
 10
79.099429
 20
67.458926
 30
0.0
 10
78.925781
 20
66.474118
 30
0.0
 10
79.713628
 20
66.335200
 30
0.0
 10
77.629852
 20
54.517504
 30
0.0
 10
76.842005
 20
54.656422
 30
0.0
 10
76.668357
 20
53.671614
 30
0.0
 10
62.881045
 20
56.102686
 30
0.0
 10
63.054693
 20
57.087494
 30
0.0
 10
62.266847
 20
57.226412
 30
0.0
 10
64.350623
 20
69.044108
 30
0.0
 10
65.138469
 20
68.905190
 30
0.0
  0
LWPOLYLINE
  5
162
100
AcDbEntity
  8
0
 62
7
100
AcDbPolyline
 90
12
 70
1
 10
62.004123
 20
51.129406
 30
0.0
 10
75.791435
 20
48.698334
 30
0.0
 10
75.617787
 20
47.713526
 30
0.0
 10
76.405633
 20
47.574607
 30
0.0
 10
74.321857
 20
35.756911
 30
0.0
 10
73.534011
 20
35.895830
 30
0.0
 10
73.360363
 20
34.911022
 30
0.0
 10
59.573051
 20
37.342094
 30
0.0
 10
59.746699
 20
38.326902
 30
0.0
 10
58.958852
 20
38.465820
 30
0.0
 10
61.042628
 20
50.283516
 30
0.0
 10
61.830475
 20
50.144598
 30
0.0
  0
LWPOLYLINE
  5
163
100
AcDbEntity
  8
0
 62
7
100
AcDbPolyline
 90
12
 70
1
 10
94.864933
 20
127.787821
 30
0.0
 10
108.652245
 20
125.356749
 30
0.0
 10
108.478597
 20
124.371941
 30
0.0
 10
109.266443
 20
124.233022
 30
0.0
 10
107.182667
 20
112.415326
 30
0.0
 10
106.394821
 20
112.554245
 30
0.0
 10
106.221173
 20
111.569437
 30
0.0
 10
92.433861
 20
114.000509
 30
0.0
 10
92.607509
 20
114.985317
 30
0.0
 10
91.819662
 20
115.124235
 30
0.0
 10
93.903438
 20
126.941931
 30
0.0
 10
94.691285
 20
126.803013
 30
0.0
  0
LWPOLYLINE
  5
164
100
AcDbEntity
  8
0
 62
7
100
AcDbPolyline
 90
12
 70
1
 10
91.556938
 20
109.027228
 30
0.0
 10
105.344250
 20
106.596156
 30
0.0
 10
105.170602
 20
105.611348
 30
0.0
 10
105.958449
 20
105.472430
 30
0.0
 10
103.874673
 20
93.654734
 30
0.0
 10
103.086826
 20
93.793652
 30
0.0
 10
102.913178
 20
92.808844
 30
0.0
 10
89.125866
 20
95.239916
 30
0.0
 10
89.299514
 20
96.224724
 30
0.0
 10
88.511668
 20
96.363643
 30
0.0
 10
90.595444
 20
108.181339
 30
0.0
 10
91.383290
 20
108.042420
 30
0.0
  0
LWPOLYLINE
  5
165
100
AcDbEntity
  8
0
 62
7
100
AcDbPolyline
 90
12
 70
1
 10
88.248944
 20
90.266636
 30
0.0
 10
102.036256
 20
87.835564
 30
0.0
 10
101.862608
 20
86.850756
 30
0.0
 10
102.650454
 20
86.711838
 30
0.0
 10
100.566678
 20
74.894142
 30
0.0
 10
99.778832
 20
75.033060
 30
0.0
 10
99.605184
 20
74.048252
 30
0.0
 10
85.817872
 20
76.479324
 30
0.0
 10
85.991520
 20
77.464132
 30
0.0
 10
85.203674
 20
77.603050
 30
0.0
 10
87.287450
 20
89.420746
 30
0.0
 10
88.075296
 20
89.281828
 30
0.0
  0
LWPOLYLINE
  5
166
100
AcDbEntity
  8
0
 62
7
100
AcDbPolyline
 90
12
 70
1
 10
84.940950
 20
71.506044
 30
0.0
 10
98.728262
 20
69.074972
 30
0.0
 10
98.554614
 20
68.090164
 30
0.0
 10
99.342460
 20
67.951245
 30
0.0
 10
97.258684
 20
56.133549
 30
0.0
 10
96.470838
 20
56.272468
 30
0.0
 10
96.297190
 20
55.287660
 30
0.0
 10
82.509878
 20
57.718732
 30
0.0
 10
82.683526
 20
58.703540
 30
0.0
 10
81.895679
 20
58.842458
 30
0.0
 10
83.979455
 20
70.660154
 30
0.0
 10
84.767302
 20
70.521236
 30
0.0
  0
LWPOLYLINE
  5
167
100
AcDbEntity
  8
0
 62
7
100
AcDbPolyline
 90
12
 70
1
 10
81.632955
 20
52.745451
 30
0.0
 10
95.420267
 20
50.314379
 30
0.0
 10
95.246619
 20
49.329571
 30
0.0
 10
96.034466
 20
49.190653
 30
0.0
 10
93.950690
 20
37.372957
 30
0.0
 10
93.162843
 20
37.511875
 30
0.0
 10
92.989195
 20
36.527067
 30
0.0
 10
79.201883
 20
38.958139
 30
0.0
 10
79.375531
 20
39.942947
 30
0.0
 10
78.587685
 20
40.081866
 30
0.0
 10
80.671461
 20
51.899562
 30
0.0
 10
81.459307
 20
51.760643
 30
0.0
  0
LWPOLYLINE
  5
168
100
AcDbEntity
  8
0
 62
7
100
AcDbPolyline
 90
12
 70
1
 10
112.583637
 20
118.570978
 30
0.0
 10
126.370949
 20
116.139906
 30
0.0
 10
126.197301
 20
115.155098
 30
0.0
 10
126.985148
 20
115.016180
 30
0.0
 10
124.901372
 20
103.198484
 30
0.0
 10
124.113525
 20
103.337402
 30
0.0
 10
123.939877
 20
102.352594
 30
0.0
 10
110.152565
 20
104.783666
 30
0.0
 10
110.326213
 20
105.768474
 30
0.0
 10
109.538367
 20
105.907393
 30
0.0
 10
111.622143
 20
117.725089
 30
0.0
 10
112.409989
 20
117.586170
 30
0.0
  0
LWPOLYLINE
  5
169
100
AcDbEntity
  8
0
 62
7
100
AcDbPolyline
 90
12
 70
1
 10
109.275643
 20
99.810386
 30
0.0
 10
123.062955
 20
97.379314
 30
0.0
 10
122.889307
 20
96.394506
 30
0.0
 10
123.677153
 20
96.255588
 30
0.0
 10
121.593377
 20
84.437892
 30
0.0
 10
120.805531
 20
84.576810
 30
0.0
 10
120.631883
 20
83.592002
 30
0.0
 10
106.844571
 20
86.023074
 30
0.0
 10
107.018219
 20
87.007882
 30
0.0
 10
106.230372
 20
87.146800
 30
0.0
 10
108.314148
 20
98.964496
 30
0.0
 10
109.101995
 20
98.825578
 30
0.0
  0
LWPOLYLINE
  5
16a
100
AcDbEntity
  8
0
 62
7
100
AcDbPolyline
 90
12
 70
1
 10
105.967648
 20
81.049794
 30
0.0
 10
119.754960
 20
78.618722
 30
0.0
 10
119.581312
 20
77.633914
 30
0.0
 10
120.369159
 20
77.494995
 30
0.0
 10
118.285383
 20
65.677299
 30
0.0
 10
117.497536
 20
65.816218
 30
0.0
 10
117.323888
 20
64.831410
 30
0.0
 10
103.536576
 20
67.262482
 30
0.0
 10
103.710224
 20
68.247290
 30
0.0
 10
102.922378
 20
68.386208
 30
0.0
 10
105.006154
 20
80.203904
 30
0.0
 10
105.794000
 20
80.064986
 30
0.0
  0
LWPOLYLINE
  5
16b
100
AcDbEntity
  8
0
 62
7
100
AcDbPolyline
 90
12
 70
1
 10
102.659654
 20
62.289201
 30
0.0
 10
116.446966
 20
59.858129
 30
0.0
 10
116.273318
 20
58.873321
 30
0.0
 10
117.061164
 20
58.734403
 30
0.0
 10
114.977388
 20
46.916707
 30
0.0
 10
114.189542
 20
47.055625
 30
0.0
 10
114.015894
 20
46.070817
 30
0.0
 10
100.228582
 20
48.501889
 30
0.0
 10
100.402230
 20
49.486697
 30
0.0
 10
99.614384
 20
49.625616
 30
0.0
 10
101.698160
 20
61.443312
 30
0.0
 10
102.486006
 20
61.304393
 30
0.0
  0
LWPOLYLINE
  5
16c
100
AcDbEntity
  8
0
 62
7
100
AcDbPolyline
 90
12
 70
1
 10
99.351660
 20
43.528609
 30
0.0
 10
113.138972
 20
41.097537
 30
0.0
 10
112.965324
 20
40.112729
 30
0.0
 10
113.753170
 20
39.973810
 30
0.0
 10
111.669394
 20
28.156114
 30
0.0
 10
110.881548
 20
28.295033
 30
0.0
 10
110.707900
 20
27.310225
 30
0.0
 10
96.920588
 20
29.741297
 30
0.0
 10
97.094236
 20
30.726105
 30
0.0
 10
96.306389
 20
30.865023
 30
0.0
 10
98.390165
 20
42.682719
 30
0.0
 10
99.178012
 20
42.543801
 30
0.0
  0
LWPOLYLINE
  5
16d
100
AcDbEntity
  8
0
 62
7
100
AcDbPolyline
 90
12
 70
1
 10
130.475990
 20
110.338944
 30
0.0
 10
144.263302
 20
107.907872
 30
0.0
 10
144.089654
 20
106.923064
 30
0.0
 10
144.877500
 20
106.784146
 30
0.0
 10
142.793724
 20
94.966450
 30
0.0
 10
142.005878
 20
95.105368
 30
0.0
 10
141.832230
 20
94.120560
 30
0.0
 10
128.044918
 20
96.551632
 30
0.0
 10
128.218566
 20
97.536440
 30
0.0
 10
127.430719
 20
97.675358
 30
0.0
 10
129.514495
 20
109.493054
 30
0.0
 10
130.302342
 20
109.354136
 30
0.0
  0
LWPOLYLINE
  5
16e
100
AcDbEntity
  8
0
 62
7
100
AcDbPolyline
 90
12
 70
1
 10
127.167995
 20
91.578352
 30
0.0
 10
140.955307
 20
89.147280
 30
0.0
 10
140.781659
 20
88.162472
 30
0.0
 10
141.569506
 20
88.023553
 30
0.0
 10
139.485730
 20
76.205857
 30
0.0
 10
138.697883
 20
76.344776
 30
0.0
 10
138.524235
 20
75.359968
 30
0.0
 10
124.736923
 20
77.791040
 30
0.0
 10
124.910571
 20
78.775848
 30
0.0
 10
124.122725
 20
78.914766
 30
0.0
 10
126.206501
 20
90.732462
 30
0.0
 10
126.994347
 20
90.593544
 30
0.0
  0
LWPOLYLINE
  5
16f
100
AcDbEntity
  8
0
 62
7
100
AcDbPolyline
 90
12
 70
1
 10
123.860001
 20
72.817759
 30
0.0
 10
137.647313
 20
70.386687
 30
0.0
 10
137.473665
 20
69.401879
 30
0.0
 10
138.261511
 20
69.262961
 30
0.0
 10
136.177735
 20
57.445265
 30
0.0
 10
135.389889
 20
57.584183
 30
0.0
 10
135.216241
 20
56.599375
 30
0.0
 10
121.428929
 20
59.030447
 30
0.0
 10
121.602577
 20
60.015255
 30
0.0
 10
120.814730
 20
60.154174
 30
0.0
 10
122.898506
 20
71.971870
 30
0.0
 10
123.686353
 20
71.832951
 30
0.0
  0
LWPOLYLINE
  5
170
100
AcDbEntity
  8
0
 62
7
100
AcDbPolyline
 90
12
 70
1
 10
120.552006
 20
54.057167
 30
0.0
 10
134.339318
 20
51.626095
 30
0.0
 10
134.165670
 20
50.641287
 30
0.0
 10
134.953517
 20
50.502368
 30
0.0
 10
132.869741
 20
38.684672
 30
0.0
 10
132.081894
 20
38.823591
 30
0.0
 10
131.908246
 20
37.838783
 30
0.0
 10
118.120934
 20
40.269855
 30
0.0
 10
118.294582
 20
41.254663
 30
0.0
 10
117.506736
 20
41.393581
 30
0.0
 10
119.590512
 20
53.211277
 30
0.0
 10
120.378358
 20
53.072359
 30
0.0
  0
LWPOLYLINE
  5
171
100
AcDbEntity
  8
0
 62
7
100
AcDbPolyline
 90
12
 70
1
 10
117.244012
 20
35.296574
 30
0.0
 10
131.031324
 20
32.865502
 30
0.0
 10
130.857676
 20
31.880694
 30
0.0
 10
131.645522
 20
31.741776
 30
0.0
 10
129.561746
 20
19.924080
 30
0.0
 10
128.773900
 20
20.062998
 30
0.0
 10
128.600252
 20
19.078190
 30
0.0
 10
114.812940
 20
21.509262
 30
0.0
 10
114.986588
 20
22.494070
 30
0.0
 10
114.198742
 20
22.632989
 30
0.0
 10
116.282518
 20
34.450685
 30
0.0
 10
117.070364
 20
34.311766
 30
0.0
  0
LWPOLYLINE
  5
172
100
AcDbEntity
  8
0
 62
7
100
AcDbPolyline
 90
12
 70
1
 10
136.004604
 20
31.988580
 30
0.0
 10
149.791916
 20
29.557508
 30
0.0
 10
149.618268
 20
28.572700
 30
0.0
 10
150.406115
 20
28.433782
 30
0.0
 10
148.322339
 20
16.616086
 30
0.0
 10
147.534492
 20
16.755004
 30
0.0
 10
147.360844
 20
15.770196
 30
0.0
 10
133.573532
 20
18.201268
 30
0.0
 10
133.747180
 20
19.186076
 30
0.0
 10
132.959334
 20
19.324994
 30
0.0
 10
135.043110
 20
31.142690
 30
0.0
 10
135.830956
 20
31.003772
 30
0.0
  0
LWPOLYLINE
  5
173
100
AcDbEntity
  8
0
 62
7
100
AcDbPolyline
 90
12
 70
1
 10
146.922000
 20
56.241000
 30
0.0
 10
160.922000
 20
56.241000
 30
0.0
 10
160.922000
 20
55.241000
 30
0.0
 10
161.722000
 20
55.241000
 30
0.0
 10
161.722000
 20
43.241000
 30
0.0
 10
160.922000
 20
43.241000
 30
0.0
 10
160.922000
 20
42.241000
 30
0.0
 10
146.922000
 20
42.241000
 30
0.0
 10
146.922000
 20
43.241000
 30
0.0
 10
146.122000
 20
43.241000
 30
0.0
 10
146.122000
 20
55.241000
 30
0.0
 10
146.922000
 20
55.241000
 30
0.0
  0
LWPOLYLINE
  5
174
100
AcDbEntity
  8
0
 62
7
100
AcDbPolyline
 90
12
 70
1
 10
165.972000
 20
65.766000
 30
0.0
 10
179.972000
 20
65.766000
 30
0.0
 10
179.972000
 20
64.766000
 30
0.0
 10
180.772000
 20
64.766000
 30
0.0
 10
180.772000
 20
52.766000
 30
0.0
 10
179.972000
 20
52.766000
 30
0.0
 10
179.972000
 20
51.766000
 30
0.0
 10
165.972000
 20
51.766000
 30
0.0
 10
165.972000
 20
52.766000
 30
0.0
 10
165.172000
 20
52.766000
 30
0.0
 10
165.172000
 20
64.766000
 30
0.0
 10
165.972000
 20
64.766000
 30
0.0
  0
LWPOLYLINE
  5
175
100
AcDbEntity
  8
0
 62
7
100
AcDbPolyline
 90
12
 70
1
 10
165.972000
 20
46.716000
 30
0.0
 10
179.972000
 20
46.716000
 30
0.0
 10
179.972000
 20
45.716000
 30
0.0
 10
180.772000
 20
45.716000
 30
0.0
 10
180.772000
 20
33.716000
 30
0.0
 10
179.972000
 20
33.716000
 30
0.0
 10
179.972000
 20
32.716000
 30
0.0
 10
165.972000
 20
32.716000
 30
0.0
 10
165.972000
 20
33.716000
 30
0.0
 10
165.172000
 20
33.716000
 30
0.0
 10
165.172000
 20
45.716000
 30
0.0
 10
165.972000
 20
45.716000
 30
0.0
  0
LWPOLYLINE
  5
176
100
AcDbEntity
  8
0
 62
7
100
AcDbPolyline
 90
12
 70
1
 10
185.022000
 20
56.241000
 30
0.0
 10
199.022000
 20
56.241000
 30
0.0
 10
199.022000
 20
55.241000
 30
0.0
 10
199.822000
 20
55.241000
 30
0.0
 10
199.822000
 20
43.241000
 30
0.0
 10
199.022000
 20
43.241000
 30
0.0
 10
199.022000
 20
42.241000
 30
0.0
 10
185.022000
 20
42.241000
 30
0.0
 10
185.022000
 20
43.241000
 30
0.0
 10
184.222000
 20
43.241000
 30
0.0
 10
184.222000
 20
55.241000
 30
0.0
 10
185.022000
 20
55.241000
 30
0.0
  0
LWPOLYLINE
  5
177
100
AcDbEntity
  8
0
 62
7
100
AcDbPolyline
 90
12
 70
1
 10
196.152084
 20
29.557508
 30
0.0
 10
209.939396
 20
31.988580
 30
0.0
 10
210.113044
 20
31.003772
 30
0.0
 10
210.900890
 20
31.142690
 30
0.0
 10
212.984666
 20
19.324994
 30
0.0
 10
212.196820
 20
19.186076
 30
0.0
 10
212.370468
 20
18.201268
 30
0.0
 10
198.583156
 20
15.770196
 30
0.0
 10
198.409508
 20
16.755004
 30
0.0
 10
197.621661
 20
16.616086
 30
0.0
 10
195.537885
 20
28.433782
 30
0.0
 10
196.325732
 20
28.572700
 30
0.0
  0
LWPOLYLINE
  5
178
100
AcDbEntity
  8
0
 62
7
100
AcDbPolyline
 90
12
 70
1
 10
201.680698
 20
107.907872
 30
0.0
 10
215.468010
 20
110.338944
 30
0.0
 10
215.641658
 20
109.354136
 30
0.0
 10
216.429505
 20
109.493054
 30
0.0
 10
218.513281
 20
97.675358
 30
0.0
 10
217.725434
 20
97.536440
 30
0.0
 10
217.899082
 20
96.551632
 30
0.0
 10
204.111770
 20
94.120560
 30
0.0
 10
203.938122
 20
95.105368
 30
0.0
 10
203.150276
 20
94.966450
 30
0.0
 10
201.066500
 20
106.784146
 30
0.0
 10
201.854346
 20
106.923064
 30
0.0
  0
LWPOLYLINE
  5
179
100
AcDbEntity
  8
0
 62
7
100
AcDbPolyline
 90
12
 70
1
 10
204.988693
 20
89.147280
 30
0.0
 10
218.776005
 20
91.578352
 30
0.0
 10
218.949653
 20
90.593544
 30
0.0
 10
219.737499
 20
90.732462
 30
0.0
 10
221.821275
 20
78.914766
 30
0.0
 10
221.033429
 20
78.775848
 30
0.0
 10
221.207077
 20
77.791040
 30
0.0
 10
207.419765
 20
75.359968
 30
0.0
 10
207.246117
 20
76.344776
 30
0.0
 10
206.458270
 20
76.205857
 30
0.0
 10
204.374494
 20
88.023553
 30
0.0
 10
205.162341
 20
88.162472
 30
0.0
  0
LWPOLYLINE
  5
17a
100
AcDbEntity
  8
0
 62
7
100
AcDbPolyline
 90
12
 70
1
 10
208.296687
 20
70.386687
 30
0.0
 10
222.083999
 20
72.817759
 30
0.0
 10
222.257647
 20
71.832951
 30
0.0
 10
223.045494
 20
71.971870
 30
0.0
 10
225.129270
 20
60.154174
 30
0.0
 10
224.341423
 20
60.015255
 30
0.0
 10
224.515071
 20
59.030447
 30
0.0
 10
210.727759
 20
56.599375
 30
0.0
 10
210.554111
 20
57.584183
 30
0.0
 10
209.766265
 20
57.445265
 30
0.0
 10
207.682489
 20
69.262961
 30
0.0
 10
208.470335
 20
69.401879
 30
0.0
  0
LWPOLYLINE
  5
17b
100
AcDbEntity
  8
0
 62
7
100
AcDbPolyline
 90
12
 70
1
 10
211.604682
 20
51.626095
 30
0.0
 10
225.391994
 20
54.057167
 30
0.0
 10
225.565642
 20
53.072359
 30
0.0
 10
226.353488
 20
53.211277
 30
0.0
 10
228.437264
 20
41.393581
 30
0.0
 10
227.649418
 20
41.254663
 30
0.0
 10
227.823066
 20
40.269855
 30
0.0
 10
214.035754
 20
37.838783
 30
0.0
 10
213.862106
 20
38.823591
 30
0.0
 10
213.074259
 20
38.684672
 30
0.0
 10
210.990483
 20
50.502368
 30
0.0
 10
211.778330
 20
50.641287
 30
0.0
  0
LWPOLYLINE
  5
17c
100
AcDbEntity
  8
0
 62
7
100
AcDbPolyline
 90
12
 70
1
 10
214.912676
 20
32.865502
 30
0.0
 10
228.699988
 20
35.296574
 30
0.0
 10
228.873636
 20
34.311766
 30
0.0
 10
229.661482
 20
34.450685
 30
0.0
 10
231.745258
 20
22.632989
 30
0.0
 10
230.957412
 20
22.494070
 30
0.0
 10
231.131060
 20
21.509262
 30
0.0
 10
217.343748
 20
19.078190
 30
0.0
 10
217.170100
 20
20.062998
 30
0.0
 10
216.382254
 20
19.924080
 30
0.0
 10
214.298478
 20
31.741776
 30
0.0
 10
215.086324
 20
31.880694
 30
0.0
  0
LWPOLYLINE
  5
17d
100
AcDbEntity
  8
0
 62
7
100
AcDbPolyline
 90
12
 70
1
 10
219.573051
 20
116.139906
 30
0.0
 10
233.360363
 20
118.570978
 30
0.0
 10
233.534011
 20
117.586170
 30
0.0
 10
234.321857
 20
117.725089
 30
0.0
 10
236.405633
 20
105.907393
 30
0.0
 10
235.617787
 20
105.768474
 30
0.0
 10
235.791435
 20
104.783666
 30
0.0
 10
222.004123
 20
102.352594
 30
0.0
 10
221.830475
 20
103.337402
 30
0.0
 10
221.042628
 20
103.198484
 30
0.0
 10
218.958852
 20
115.016180
 30
0.0
 10
219.746699
 20
115.155098
 30
0.0
  0
LWPOLYLINE
  5
17e
100
AcDbEntity
  8
0
 62
7
100
AcDbPolyline
 90
12
 70
1
 10
222.881045
 20
97.379314
 30
0.0
 10
236.668357
 20
99.810386
 30
0.0
 10
236.842005
 20
98.825578
 30
0.0
 10
237.629852
 20
98.964496
 30
0.0
 10
239.713628
 20
87.146800
 30
0.0
 10
238.925781
 20
87.007882
 30
0.0
 10
239.099429
 20
86.023074
 30
0.0
 10
225.312117
 20
83.592002
 30
0.0
 10
225.138469
 20
84.576810
 30
0.0
 10
224.350623
 20
84.437892
 30
0.0
 10
222.266847
 20
96.255588
 30
0.0
 10
223.054693
 20
96.394506
 30
0.0
  0
LWPOLYLINE
  5
17f
100
AcDbEntity
  8
0
 62
7
100
AcDbPolyline
 90
12
 70
1
 10
226.189040
 20
78.618722
 30
0.0
 10
239.976352
 20
81.049794
 30
0.0
 10
240.150000
 20
80.064986
 30
0.0
 10
240.937846
 20
80.203904
 30
0.0
 10
243.021622
 20
68.386208
 30
0.0
 10
242.233776
 20
68.247290
 30
0.0
 10
242.407424
 20
67.262482
 30
0.0
 10
228.620112
 20
64.831410
 30
0.0
 10
228.446464
 20
65.816218
 30
0.0
 10
227.658617
 20
65.677299
 30
0.0
 10
225.574841
 20
77.494995
 30
0.0
 10
226.362688
 20
77.633914
 30
0.0
  0
LWPOLYLINE
  5
180
100
AcDbEntity
  8
0
 62
7
100
AcDbPolyline
 90
12
 70
1
 10
229.497034
 20
59.858129
 30
0.0
 10
243.284346
 20
62.289201
 30
0.0
 10
243.457994
 20
61.304393
 30
0.0
 10
244.245840
 20
61.443312
 30
0.0
 10
246.329616
 20
49.625616
 30
0.0
 10
245.541770
 20
49.486697
 30
0.0
 10
245.715418
 20
48.501889
 30
0.0
 10
231.928106
 20
46.070817
 30
0.0
 10
231.754458
 20
47.055625
 30
0.0
 10
230.966612
 20
46.916707
 30
0.0
 10
228.882836
 20
58.734403
 30
0.0
 10
229.670682
 20
58.873321
 30
0.0
  0
LWPOLYLINE
  5
181
100
AcDbEntity
  8
0
 62
7
100
AcDbPolyline
 90
12
 70
1
 10
232.805028
 20
41.097537
 30
0.0
 10
246.592340
 20
43.528609
 30
0.0
 10
246.765988
 20
42.543801
 30
0.0
 10
247.553835
 20
42.682719
 30
0.0
 10
249.637611
 20
30.865023
 30
0.0
 10
248.849764
 20
30.726105
 30
0.0
 10
249.023412
 20
29.741297
 30
0.0
 10
235.236100
 20
27.310225
 30
0.0
 10
235.062452
 20
28.295033
 30
0.0
 10
234.274606
 20
28.156114
 30
0.0
 10
232.190830
 20
39.973810
 30
0.0
 10
232.978676
 20
40.112729
 30
0.0
  0
LWPOLYLINE
  5
182
100
AcDbEntity
  8
0
 62
7
100
AcDbPolyline
 90
12
 70
1
 10
237.291755
 20
125.356749
 30
0.0
 10
251.079067
 20
127.787821
 30
0.0
 10
251.252715
 20
126.803013
 30
0.0
 10
252.040562
 20
126.941931
 30
0.0
 10
254.124338
 20
115.124235
 30
0.0
 10
253.336491
 20
114.985317
 30
0.0
 10
253.510139
 20
114.000509
 30
0.0
 10
239.722827
 20
111.569437
 30
0.0
 10
239.549179
 20
112.554245
 30
0.0
 10
238.761333
 20
112.415326
 30
0.0
 10
236.677557
 20
124.233022
 30
0.0
 10
237.465403
 20
124.371941
 30
0.0
  0
LWPOLYLINE
  5
183
100
AcDbEntity
  8
0
 62
7
100
AcDbPolyline
 90
12
 70
1
 10
240.599750
 20
106.596156
 30
0.0
 10
254.387062
 20
109.027228
 30
0.0
 10
254.560710
 20
108.042420
 30
0.0
 10
255.348556
 20
108.181339
 30
0.0
 10
257.432332
 20
96.363643
 30
0.0
 10
256.644486
 20
96.224724
 30
0.0
 10
256.818134
 20
95.239916
 30
0.0
 10
243.030822
 20
92.808844
 30
0.0
 10
242.857174
 20
93.793652
 30
0.0
 10
242.069327
 20
93.654734
 30
0.0
 10
239.985551
 20
105.472430
 30
0.0
 10
240.773398
 20
105.611348
 30
0.0
  0
LWPOLYLINE
  5
184
100
AcDbEntity
  8
0
 62
7
100
AcDbPolyline
 90
12
 70
1
 10
243.907744
 20
87.835564
 30
0.0
 10
257.695056
 20
90.266636
 30
0.0
 10
257.868704
 20
89.281828
 30
0.0
 10
258.656550
 20
89.420746
 30
0.0
 10
260.740326
 20
77.603050
 30
0.0
 10
259.952480
 20
77.464132
 30
0.0
 10
260.126128
 20
76.479324
 30
0.0
 10
246.338816
 20
74.048252
 30
0.0
 10
246.165168
 20
75.033060
 30
0.0
 10
245.377322
 20
74.894142
 30
0.0
 10
243.293546
 20
86.711838
 30
0.0
 10
244.081392
 20
86.850756
 30
0.0
  0
LWPOLYLINE
  5
185
100
AcDbEntity
  8
0
 62
7
100
AcDbPolyline
 90
12
 70
1
 10
247.215738
 20
69.074972
 30
0.0
 10
261.003050
 20
71.506044
 30
0.0
 10
261.176698
 20
70.521236
 30
0.0
 10
261.964545
 20
70.660154
 30
0.0
 10
264.048321
 20
58.842458
 30
0.0
 10
263.260474
 20
58.703540
 30
0.0
 10
263.434122
 20
57.718732
 30
0.0
 10
249.646810
 20
55.287660
 30
0.0
 10
249.473162
 20
56.272468
 30
0.0
 10
248.685316
 20
56.133549
 30
0.0
 10
246.601540
 20
67.951245
 30
0.0
 10
247.389386
 20
68.090164
 30
0.0
  0
LWPOLYLINE
  5
186
100
AcDbEntity
  8
0
 62
7
100
AcDbPolyline
 90
12
 70
1
 10
250.523733
 20
50.314379
 30
0.0
 10
264.311045
 20
52.745451
 30
0.0
 10
264.484693
 20
51.760643
 30
0.0
 10
265.272539
 20
51.899562
 30
0.0
 10
267.356315
 20
40.081866
 30
0.0
 10
266.568469
 20
39.942947
 30
0.0
 10
266.742117
 20
38.958139
 30
0.0
 10
252.954805
 20
36.527067
 30
0.0
 10
252.781157
 20
37.511875
 30
0.0
 10
251.993310
 20
37.372957
 30
0.0
 10
249.909534
 20
49.190653
 30
0.0
 10
250.697381
 20
49.329571
 30
0.0
  0
LWPOLYLINE
  5
187
100
AcDbEntity
  8
0
 62
7
100
AcDbPolyline
 90
12
 70
1
 10
256.920588
 20
123.740703
 30
0.0
 10
270.707900
 20
126.171775
 30
0.0
 10
270.881548
 20
125.186967
 30
0.0
 10
271.669394
 20
125.325886
 30
0.0
 10
273.753170
 20
113.508190
 30
0.0
 10
272.965324
 20
113.369271
 30
0.0
 10
273.138972
 20
112.384463
 30
0.0
 10
259.351660
 20
109.953391
 30
0.0
 10
259.178012
 20
110.938199
 30
0.0
 10
258.390165
 20
110.799281
 30
0.0
 10
256.306389
 20
122.616977
 30
0.0
 10
257.094236
 20
122.755895
 30
0.0
  0
LWPOLYLINE
  5
188
100
AcDbEntity
  8
0
 62
7
100
AcDbPolyline
 90
12
 70
1
 10
260.228582
 20
104.980111
 30
0.0
 10
274.015894
 20
107.411183
 30
0.0
 10
274.189542
 20
106.426375
 30
0.0
 10
274.977388
 20
106.565293
 30
0.0
 10
277.061164
 20
94.747597
 30
0.0
 10
276.273318
 20
94.608679
 30
0.0
 10
276.446966
 20
93.623871
 30
0.0
 10
262.659654
 20
91.192799
 30
0.0
 10
262.486006
 20
92.177607
 30
0.0
 10
261.698160
 20
92.038688
 30
0.0
 10
259.614384
 20
103.856384
 30
0.0
 10
260.402230
 20
103.995303
 30
0.0
  0
LWPOLYLINE
  5
189
100
AcDbEntity
  8
0
 62
7
100
AcDbPolyline
 90
12
 70
1
 10
263.536576
 20
86.219518
 30
0.0
 10
277.323888
 20
88.650590
 30
0.0
 10
277.497536
 20
87.665782
 30
0.0
 10
278.285383
 20
87.804701
 30
0.0
 10
280.369159
 20
75.987005
 30
0.0
 10
279.581312
 20
75.848086
 30
0.0
 10
279.754960
 20
74.863278
 30
0.0
 10
265.967648
 20
72.432206
 30
0.0
 10
265.794000
 20
73.417014
 30
0.0
 10
265.006154
 20
73.278096
 30
0.0
 10
262.922378
 20
85.095792
 30
0.0
 10
263.710224
 20
85.234710
 30
0.0
  0
LWPOLYLINE
  5
18a
100
AcDbEntity
  8
0
 62
7
100
AcDbPolyline
 90
12
 70
1
 10
266.844571
 20
67.458926
 30
0.0
 10
280.631883
 20
69.889998
 30
0.0
 10
280.805531
 20
68.905190
 30
0.0
 10
281.593377
 20
69.044108
 30
0.0
 10
283.677153
 20
57.226412
 30
0.0
 10
282.889307
 20
57.087494
 30
0.0
 10
283.062955
 20
56.102686
 30
0.0
 10
269.275643
 20
53.671614
 30
0.0
 10
269.101995
 20
54.656422
 30
0.0
 10
268.314148
 20
54.517504
 30
0.0
 10
266.230372
 20
66.335200
 30
0.0
 10
267.018219
 20
66.474118
 30
0.0
  0
LWPOLYLINE
  5
18b
100
AcDbEntity
  8
0
 62
7
100
AcDbPolyline
 90
12
 70
1
 10
270.152565
 20
48.698334
 30
0.0
 10
283.939877
 20
51.129406
 30
0.0
 10
284.113525
 20
50.144598
 30
0.0
 10
284.901372
 20
50.283516
 30
0.0
 10
286.985148
 20
38.465820
 30
0.0
 10
286.197301
 20
38.326902
 30
0.0
 10
286.370949
 20
37.342094
 30
0.0
 10
272.583637
 20
34.911022
 30
0.0
 10
272.409989
 20
35.895830
 30
0.0
 10
271.622143
 20
35.756911
 30
0.0
 10
269.538367
 20
47.574607
 30
0.0
 10
270.326213
 20
47.713526
 30
0.0
  0
LWPOLYLINE
  5
18c
100
AcDbEntity
  8
0
 62
7
100
AcDbPolyline
 90
12
 70
1
 10
276.202124
 20
124.094274
 30
0.0
 10
289.989436
 20
126.525346
 30
0.0
 10
290.163084
 20
125.540538
 30
0.0
 10
290.950930
 20
125.679456
 30
0.0
 10
293.034706
 20
113.861760
 30
0.0
 10
292.246860
 20
113.722842
 30
0.0
 10
292.420508
 20
112.738034
 30
0.0
 10
278.633196
 20
110.306962
 30
0.0
 10
278.459548
 20
111.291770
 30
0.0
 10
277.671702
 20
111.152851
 30
0.0
 10
275.587926
 20
122.970547
 30
0.0
 10
276.375772
 20
123.109466
 30
0.0
  0
LWPOLYLINE
  5
18d
100
AcDbEntity
  8
0
 62
7
100
AcDbPolyline
 90
12
 70
1
 10
279.510118
 20
105.333681
 30
0.0
 10
293.297430
 20
107.764753
 30
0.0
 10
293.471078
 20
106.779945
 30
0.0
 10
294.258925
 20
106.918864
 30
0.0
 10
296.342701
 20
95.101168
 30
0.0
 10
295.554854
 20
94.962249
 30
0.0
 10
295.728502
 20
93.977441
 30
0.0
 10
281.941190
 20
91.546369
 30
0.0
 10
281.767542
 20
92.531177
 30
0.0
 10
280.979696
 20
92.392259
 30
0.0
 10
278.895920
 20
104.209955
 30
0.0
 10
279.683766
 20
104.348873
 30
0.0
  0
LWPOLYLINE
  5
18e
100
AcDbEntity
  8
0
 62
7
100
AcDbPolyline
 90
12
 70
1
 10
282.818113
 20
86.573089
 30
0.0
 10
296.605425
 20
89.004161
 30
0.0
 10
296.779073
 20
88.019353
 30
0.0
 10
297.566919
 20
88.158271
 30
0.0
 10
299.650695
 20
76.340575
 30
0.0
 10
298.862849
 20
76.201657
 30
0.0
 10
299.036497
 20
75.216849
 30
0.0
 10
285.249185
 20
72.785777
 30
0.0
 10
285.075537
 20
73.770585
 30
0.0
 10
284.287690
 20
73.631666
 30
0.0
 10
282.203914
 20
85.449362
 30
0.0
 10
282.991761
 20
85.588281
 30
0.0
  0
LWPOLYLINE
  5
18f
100
AcDbEntity
  8
0
 62
7
100
AcDbPolyline
 90
12
 70
1
 10
286.126107
 20
67.812496
 30
0.0
 10
299.913419
 20
70.243568
 30
0.0
 10
300.087067
 20
69.258760
 30
0.0
 10
300.874914
 20
69.397679
 30
0.0
 10
302.958690
 20
57.579983
 30
0.0
 10
302.170843
 20
57.441064
 30
0.0
 10
302.344491
 20
56.456256
 30
0.0
 10
288.557179
 20
54.025184
 30
0.0
 10
288.383531
 20
55.009992
 30
0.0
 10
287.595685
 20
54.871074
 30
0.0
 10
285.511909
 20
66.688770
 30
0.0
 10
286.299755
 20
66.827688
 30
0.0
  0
LWPOLYLINE
  5
190
100
AcDbEntity
  8
0
 62
7
100
AcDbPolyline
 90
12
 70
1
 10
289.434102
 20
49.051904
 30
0.0
 10
303.221414
 20
51.482976
 30
0.0
 10
303.395062
 20
50.498168
 30
0.0
 10
304.182908
 20
50.637086
 30
0.0
 10
306.266684
 20
38.819390
 30
0.0
 10
305.478838
 20
38.680472
 30
0.0
 10
305.652486
 20
37.695664
 30
0.0
 10
291.865174
 20
35.264592
 30
0.0
 10
291.691526
 20
36.249400
 30
0.0
 10
290.903679
 20
36.110482
 30
0.0
 10
288.819903
 20
47.928178
 30
0.0
 10
289.607750
 20
48.067096
 30
0.0
  0
LWPOLYLINE
  5
191
100
AcDbEntity
  8
0
 62
7
100
AcDbPolyline
 90
12
 70
1
 10
294.962716
 20
127.402268
 30
0.0
 10
308.750028
 20
129.833340
 30
0.0
 10
308.923676
 20
128.848532
 30
0.0
 10
309.711523
 20
128.987450
 30
0.0
 10
311.795299
 20
117.169754
 30
0.0
 10
311.007452
 20
117.030836
 30
0.0
 10
311.181100
 20
116.046028
 30
0.0
 10
297.393788
 20
113.614956
 30
0.0
 10
297.220140
 20
114.599764
 30
0.0
 10
296.432294
 20
114.460846
 30
0.0
 10
294.348518
 20
126.278542
 30
0.0
 10
295.136364
 20
126.417460
 30
0.0
  0
LWPOLYLINE
  5
192
100
AcDbEntity
  8
0
 62
7
100
AcDbPolyline
 90
12
 70
1
 10
298.270711
 20
108.641676
 30
0.0
 10
312.058023
 20
111.072748
 30
0.0
 10
312.231671
 20
110.087940
 30
0.0
 10
313.019517
 20
110.226858
 30
0.0
 10
315.103293
 20
98.409162
 30
0.0
 10
314.315447
 20
98.270244
 30
0.0
 10
314.489095
 20
97.285436
 30
0.0
 10
300.701783
 20
94.854364
 30
0.0
 10
300.528135
 20
95.839172
 30
0.0
 10
299.740288
 20
95.700253
 30
0.0
 10
297.656512
 20
107.517949
 30
0.0
 10
298.444359
 20
107.656868
 30
0.0
  0
LWPOLYLINE
  5
193
100
AcDbEntity
  8
0
 62
7
100
AcDbPolyline
 90
12
 70
1
 10
301.578705
 20
89.881083
 30
0.0
 10
315.366017
 20
92.312155
 30
0.0
 10
315.539665
 20
91.327347
 30
0.0
 10
316.327512
 20
91.466266
 30
0.0
 10
318.411288
 20
79.648570
 30
0.0
 10
317.623441
 20
79.509651
 30
0.0
 10
317.797089
 20
78.524843
 30
0.0
 10
304.009777
 20
76.093771
 30
0.0
 10
303.836129
 20
77.078579
 30
0.0
 10
303.048283
 20
76.939661
 30
0.0
 10
300.964507
 20
88.757357
 30
0.0
 10
301.752353
 20
88.896275
 30
0.0
  0
LWPOLYLINE
  5
194
100
AcDbEntity
  8
0
 62
7
100
AcDbPolyline
 90
12
 70
1
 10
304.886700
 20
71.120491
 30
0.0
 10
318.674012
 20
73.551563
 30
0.0
 10
318.847660
 20
72.566755
 30
0.0
 10
319.635506
 20
72.705673
 30
0.0
 10
321.719282
 20
60.887977
 30
0.0
 10
320.931436
 20
60.749059
 30
0.0
 10
321.105084
 20
59.764251
 30
0.0
 10
307.317772
 20
57.333179
 30
0.0
 10
307.144124
 20
58.317987
 30
0.0
 10
306.356277
 20
58.179068
 30
0.0
 10
304.272501
 20
69.996764
 30
0.0
 10
305.060348
 20
70.135683
 30
0.0
  0
LWPOLYLINE
  5
195
100
AcDbEntity
  8
0
 62
7
100
AcDbPolyline
 90
12
 70
1
 10
308.194694
 20
52.359898
 30
0.0
 10
321.982006
 20
54.790970
 30
0.0
 10
322.155654
 20
53.806162
 30
0.0
 10
322.943500
 20
53.945081
 30
0.0
 10
325.027276
 20
42.127385
 30
0.0
 10
324.239430
 20
41.988466
 30
0.0
 10
324.413078
 20
41.003658
 30
0.0
 10
310.625766
 20
38.572586
 30
0.0
 10
310.452118
 20
39.557394
 30
0.0
 10
309.664272
 20
39.418476
 30
0.0
 10
307.580496
 20
51.236172
 30
0.0
 10
308.368342
 20
51.375090
 30
0.0
  0
ENDSEC
  0
SECTION
  2
OBJECTS
  0
DICTIONARY
  5
C
330
0
100
AcDbDictionary
  3
ACAD_GROUP
350
D
  3
ACAD_MLINESTYLE
350
17
  0
DICTIONARY
  5
D
330
C
100
AcDbDictionary
  0
DICTIONARY
  5
1A
330
C
100
AcDbDictionary
  0
DICTIONARY
  5
17
330
C
100
AcDbDictionary
  3
STANDARD
350
18
  0
DICTIONARY
  5
19
330
C
100
AcDbDictionary
  0
ENDSEC
  0
EOF
