<?xml version="1.0" encoding="utf-8"?>
<svg width="375mm" height="175mm" viewBox="0 0 375 175" xmlns="http://www.w3.org/2000/svg">
<path style="fill-opacity: 0.0; stroke: #7f007f; stroke-width: 0.25" d="M -137.441 -55.467 L -79.77 -53.422 L -61.945 -50.279 L -26.334 -32.83 L 26.334 -32.83 L 61.945 -50.279 L 79.77 -53.422 L 137.441 -55.467 L 153.816 37.4 L 117.23 43.851 L 60.534 56.895 L 23.948 63.346 L 19.852 60.478 L -19.852 60.478 L -23.948 63.346 L -60.534 56.895 L -117.23 43.851 L -153.816 37.4 L -137.441 -55.467" />
<circle style="fill-opacity: 1.0; fill: #7f007f; stroke: none" cx="-137.441" cy="-55.467" r="0.5" />
<circle style="fill-opacity: 1.0; fill: #7f007f; stroke: none" cx="-79.77" cy="-53.422" r="0.5" />
<circle style="fill-opacity: 1.0; fill: #7f007f; stroke: none" cx="-61.945" cy="-50.279" r="0.5" />
<circle style="fill-opacity: 1.0; fill: #7f007f; stroke: none" cx="-26.334" cy="-32.83" r="0.5" />
<circle style="fill-opacity: 1.0; fill: #7f007f; stroke: none" cx="26.334" cy="-32.83" r="0.5" />
<circle style="fill-opacity: 1.0; fill: #7f007f; stroke: none" cx="61.945" cy="-50.279" r="0.5" />
<circle style="fill-opacity: 1.0; fill: #7f007f; stroke: none" cx="79.77" cy="-53.422" r="0.5" />
<circle style="fill-opacity: 1.0; fill: #7f007f; stroke: none" cx="137.441" cy="-55.467" r="0.5" />
<circle style="fill-opacity: 1.0; fill: #7f007f; stroke: none" cx="153.816" cy="37.4" r="0.5" />
<circle style="fill-opacity: 1.0; fill: #7f007f; stroke: none" cx="117.23" cy="43.851" r="0.5" />
<circle style="fill-opacity: 1.0; fill: #7f007f; stroke: none" cx="60.534" cy="56.895" r="0.5" />
<circle style="fill-opacity: 1.0; fill: #7f007f; stroke: none" cx="23.948" cy="63.346" r="0.5" />
<circle style="fill-opacity: 1.0; fill: #7f007f; stroke: none" cx="19.852" cy="60.478" r="0.5" />
<circle style="fill-opacity: 1.0; fill: #7f007f; stroke: none" cx="-19.852" cy="60.478" r="0.5" />
<circle style="fill-opacity: 1.0; fill: #7f007f; stroke: none" cx="-23.948" cy="63.346" r="0.5" />
<circle style="fill-opacity: 1.0; fill: #7f007f; stroke: none" cx="-60.534" cy="56.895" r="0.5" />
<circle style="fill-opacity: 1.0; fill: #7f007f; stroke: none" cx="-117.23" cy="43.851" r="0.5" />
<circle style="fill-opacity: 1.0; fill: #7f007f; stroke: none" cx="-153.816" cy="37.4" r="0.5" />
<path style="fill-opacity: 0.0; stroke: #007f7f; stroke-width: 0.25" d="M -138.275 -56.497 L -79.665 -54.419 L -61.632 -51.239 L -26.102 -33.83 L 26.102 -33.83 L 61.632 -51.239 L 79.665 -54.419 L 138.275 -56.497 L 154.974 38.211 L 117.429 44.831 L 60.733 57.875 L 23.714 64.403 L 19.537 61.478 L -19.537 61.478 L -23.714 64.403 L -60.733 57.875 L -117.429 44.831 L -154.974 38.211 L -138.275 -56.497" />
<circle style="fill-opacity: 1.0; fill: #007f7f; stroke: none" cx="-138.275" cy="-56.497" r="0.5" />
<circle style="fill-opacity: 1.0; fill: #007f7f; stroke: none" cx="-79.665" cy="-54.419" r="0.5" />
<circle style="fill-opacity: 1.0; fill: #007f7f; stroke: none" cx="-61.632" cy="-51.239" r="0.5" />
<circle style="fill-opacity: 1.0; fill: #007f7f; stroke: none" cx="-26.102" cy="-33.83" r="0.5" />
<circle style="fill-opacity: 1.0; fill: #007f7f; stroke: none" cx="26.102" cy="-33.83" r="0.5" />
<circle style="fill-opacity: 1.0; fill: #007f7f; stroke: none" cx="61.632" cy="-51.239" r="0.5" />
<circle style="fill-opacity: 1.0; fill: #007f7f; stroke: none" cx="79.665" cy="-54.419" r="0.5" />
<circle style="fill-opacity: 1.0; fill: #007f7f; stroke: none" cx="138.275" cy="-56.497" r="0.5" />
<circle style="fill-opacity: 1.0; fill: #007f7f; stroke: none" cx="154.974" cy="38.211" r="0.5" />
<circle style="fill-opacity: 1.0; fill: #007f7f; stroke: none" cx="117.429" cy="44.831" r="0.5" />
<circle style="fill-opacity: 1.0; fill: #007f7f; stroke: none" cx="60.733" cy="57.875" r="0.5" />
<circle style="fill-opacity: 1.0; fill: #007f7f; stroke: none" cx="23.714" cy="64.403" r="0.5" />
<circle style="fill-opacity: 1.0; fill: #007f7f; stroke: none" cx="19.537" cy="61.478" r="0.5" />
<circle style="fill-opacity: 1.0; fill: #007f7f; stroke: none" cx="-19.537" cy="61.478" r="0.5" />
<circle style="fill-opacity: 1.0; fill: #007f7f; stroke: none" cx="-23.714" cy="64.403" r="0.5" />
<circle style="fill-opacity: 1.0; fill: #007f7f; stroke: none" cx="-60.733" cy="57.875" r="0.5" />
<circle style="fill-opacity: 1.0; fill: #007f7f; stroke: none" cx="-117.429" cy="44.831" r="0.5" />
<circle style="fill-opacity: 1.0; fill: #007f7f; stroke: none" cx="-154.974" cy="38.211" r="0.5" />
</svg>