<?xml version="1.0" encoding="utf-8"?>
<svg width="375mm" height="175mm" viewBox="0 0 375 175" xmlns="http://www.w3.org/2000/svg">
<path style="fill-opacity: 0.0; stroke: #7f007f; stroke-width: 0.25" d="M -143.988 -64.818 L -79.713 -59.504 L -59.918 -56.014 L -16.983 -39.377 L -10 -39.377 L -7.5 -33.83 L -26.102 -33.83 L -61.632 -51.239 L -79.665 -54.419 L -138.275 -56.497 L -154.974 38.211 L -117.429 44.831 L -60.733 57.875 L -23.714 64.403 L -19.537 61.478 L 19.537 61.478 L 23.714 64.403 L 60.733 57.875 L 117.429 44.831 L 154.974 38.211 L 138.275 -56.497 L 79.665 -54.419 L 61.632 -51.239 L 26.102 -33.83 L 7.5 -33.83 L 10 -39.377 L 16.983 -39.377 L 59.918 -56.014 L 79.713 -59.504 L 143.988 -64.818 L 163.166 43.947 L 24.005 69.428 L -24.005 69.428 L -163.166 43.947 L -143.988 -64.818" />
<circle style="fill-opacity: 1.0; fill: #7f007f; stroke: none" cx="-143.988" cy="-64.818" r="0.5" />
<circle style="fill-opacity: 1.0; fill: #7f007f; stroke: none" cx="-79.713" cy="-59.504" r="0.5" />
<circle style="fill-opacity: 1.0; fill: #7f007f; stroke: none" cx="-59.918" cy="-56.014" r="0.5" />
<circle style="fill-opacity: 1.0; fill: #7f007f; stroke: none" cx="-16.983" cy="-39.377" r="0.5" />
<circle style="fill-opacity: 1.0; fill: #7f007f; stroke: none" cx="-10" cy="-39.377" r="0.5" />
<circle style="fill-opacity: 1.0; fill: #7f007f; stroke: none" cx="-7.5" cy="-33.83" r="0.5" />
<circle style="fill-opacity: 1.0; fill: #7f007f; stroke: none" cx="-26.102" cy="-33.83" r="0.5" />
<circle style="fill-opacity: 1.0; fill: #7f007f; stroke: none" cx="-61.632" cy="-51.239" r="0.5" />
<circle style="fill-opacity: 1.0; fill: #7f007f; stroke: none" cx="-79.665" cy="-54.419" r="0.5" />
<circle style="fill-opacity: 1.0; fill: #7f007f; stroke: none" cx="-138.275" cy="-56.497" r="0.5" />
<circle style="fill-opacity: 1.0; fill: #7f007f; stroke: none" cx="-154.974" cy="38.211" r="0.5" />
<circle style="fill-opacity: 1.0; fill: #7f007f; stroke: none" cx="-117.429" cy="44.831" r="0.5" />
<circle style="fill-opacity: 1.0; fill: #7f007f; stroke: none" cx="-60.733" cy="57.875" r="0.5" />
<circle style="fill-opacity: 1.0; fill: #7f007f; stroke: none" cx="-23.714" cy="64.403" r="0.5" />
<circle style="fill-opacity: 1.0; fill: #7f007f; stroke: none" cx="-19.537" cy="61.478" r="0.5" />
<circle style="fill-opacity: 1.0; fill: #7f007f; stroke: none" cx="19.537" cy="61.478" r="0.5" />
<circle style="fill-opacity: 1.0; fill: #7f007f; stroke: none" cx="23.714" cy="64.403" r="0.5" />
<circle style="fill-opacity: 1.0; fill: #7f007f; stroke: none" cx="60.733" cy="57.875" r="0.5" />
<circle style="fill-opacity: 1.0; fill: #7f007f; stroke: none" cx="117.429" cy="44.831" r="0.5" />
<circle style="fill-opacity: 1.0; fill: #7f007f; stroke: none" cx="154.974" cy="38.211" r="0.5" />
<circle style="fill-opacity: 1.0; fill: #7f007f; stroke: none" cx="138.275" cy="-56.497" r="0.5" />
<circle style="fill-opacity: 1.0; fill: #7f007f; stroke: none" cx="79.665" cy="-54.419" r="0.5" />
<circle style="fill-opacity: 1.0; fill: #7f007f; stroke: none" cx="61.632" cy="-51.239" r="0.5" />
<circle style="fill-opacity: 1.0; fill: #7f007f; stroke: none" cx="26.102" cy="-33.83" r="0.5" />
<circle style="fill-opacity: 1.0; fill: #7f007f; stroke: none" cx="7.5" cy="-33.83" r="0.5" />
<circle style="fill-opacity: 1.0; fill: #7f007f; stroke: none" cx="10" cy="-39.377" r="0.5" />
<circle style="fill-opacity: 1.0; fill: #7f007f; stroke: none" cx="16.983" cy="-39.377" r="0.5" />
<circle style="fill-opacity: 1.0; fill: #7f007f; stroke: none" cx="59.918" cy="-56.014" r="0.5" />
<circle style="fill-opacity: 1.0; fill: #7f007f; stroke: none" cx="79.713" cy="-59.504" r="0.5" />
<circle style="fill-opacity: 1.0; fill: #7f007f; stroke: none" cx="143.988" cy="-64.818" r="0.5" />
<circle style="fill-opacity: 1.0; fill: #7f007f; stroke: none" cx="163.166" cy="43.947" r="0.5" />
<circle style="fill-opacity: 1.0; fill: #7f007f; stroke: none" cx="24.005" cy="69.428" r="0.5" />
<circle style="fill-opacity: 1.0; fill: #7f007f; stroke: none" cx="-24.005" cy="69.428" r="0.5" />
<circle style="fill-opacity: 1.0; fill: #7f007f; stroke: none" cx="-163.166" cy="43.947" r="0.5" />
<path style="fill-opacity: 0.0; stroke: #007f7f; stroke-width: 0.25" d="M -144.50893915726823 -61.86357579308172 Q -143.988 -64.818 -140.99820071764918 -64.57081534988079" />
<path style="fill-opacity: 0.0; stroke: #007f7f; stroke-width: 0.25" d="M -82.70279928235081 -59.75118465011921 Q -79.713 -59.504 -76.75856672141126 -58.98311229389873" />
<path style="fill-opacity: 0.0; stroke: #007f7f; stroke-width: 0.25" d="M -62.87243327858873 -56.53488770610127 Q -59.918 -56.014 -57.12066874492851 -54.93005449887914" />
<path style="fill-opacity: 0.0; stroke: #007f7f; stroke-width: 0.25" d="M -19.78033125507149 -40.46094550112087 Q -16.983 -39.377 -13.983 -39.377" />
<path style="fill-opacity: 0.0; stroke: #007f7f; stroke-width: 0.25" d="M -13.0 -39.377 Q -10 -39.377 -8.767327532142247 -36.64194632831722" />
<path style="fill-opacity: 0.0; stroke: #007f7f; stroke-width: 0.25" d="M -8.732672467857753 -36.56505367168278 Q -7.5 -33.83 -10.5 -33.83" />
<path style="fill-opacity: 0.0; stroke: #007f7f; stroke-width: 0.25" d="M -23.102 -33.83 Q -26.102 -33.83 -28.795991876326784 -35.1500029432866" />
<path style="fill-opacity: 0.0; stroke: #007f7f; stroke-width: 0.25" d="M -58.938008123673214 -49.918997056713394 Q -61.632 -51.239 -64.58641497797804 -51.759991495035216" />
<path style="fill-opacity: 0.0; stroke: #007f7f; stroke-width: 0.25" d="M -76.71058502202197 -53.89800850496478 Q -79.665 -54.419 -82.66311622210824 -54.52529731290805" />
<path style="fill-opacity: 0.0; stroke: #007f7f; stroke-width: 0.25" d="M -135.27688377789178 -56.390702687091945 Q -138.275 -56.497 -138.79592711583334 -53.54257366989976" />
<path style="fill-opacity: 0.0; stroke: #007f7f; stroke-width: 0.25" d="M -154.45307288416666 35.25657366989976 Q -154.974 38.211 -152.01957409686 38.73192953732286" />
<path style="fill-opacity: 0.0; stroke: #007f7f; stroke-width: 0.25" d="M -120.38342590314 44.31007046267714 Q -117.429 44.831 -114.50537860304485 45.50363506247148" />
<path style="fill-opacity: 0.0; stroke: #007f7f; stroke-width: 0.25" d="M -63.656621396955146 57.20236493752852 Q -60.733 57.875 -57.77858426815256 58.39598722000865" />
<path style="fill-opacity: 0.0; stroke: #007f7f; stroke-width: 0.25" d="M -26.668415731847443 63.882012779991356 Q -23.714 64.403 -21.256608305369767 62.68217866727474" />
<path style="fill-opacity: 0.0; stroke: #007f7f; stroke-width: 0.25" d="M -21.99439169463023 63.19882133272527 Q -19.537 61.478 -16.537 61.478" />
<path style="fill-opacity: 0.0; stroke: #007f7f; stroke-width: 0.25" d="M 16.537 61.478 Q 19.537 61.478 21.99439169463023 63.19882133272527" />
<path style="fill-opacity: 0.0; stroke: #007f7f; stroke-width: 0.25" d="M 21.256608305369767 62.68217866727474 Q 23.714 64.403 26.668415731847443 63.882012779991356" />
<path style="fill-opacity: 0.0; stroke: #007f7f; stroke-width: 0.25" d="M 57.77858426815256 58.39598722000865 Q 60.733 57.875 63.656621396955146 57.20236493752852" />
<path style="fill-opacity: 0.0; stroke: #007f7f; stroke-width: 0.25" d="M 114.50537860304485 45.50363506247148 Q 117.429 44.831 120.38342590314 44.31007046267714" />
<path style="fill-opacity: 0.0; stroke: #007f7f; stroke-width: 0.25" d="M 152.01957409686 38.73192953732286 Q 154.974 38.211 154.45307288416666 35.25657366989976" />
<path style="fill-opacity: 0.0; stroke: #007f7f; stroke-width: 0.25" d="M 138.79592711583334 -53.54257366989976 Q 138.275 -56.497 135.27688377789178 -56.390702687091945" />
<path style="fill-opacity: 0.0; stroke: #007f7f; stroke-width: 0.25" d="M 82.66311622210824 -54.52529731290805 Q 79.665 -54.419 76.71058502202197 -53.89800850496478" />
<path style="fill-opacity: 0.0; stroke: #007f7f; stroke-width: 0.25" d="M 64.58641497797804 -51.759991495035216 Q 61.632 -51.239 58.938008123673214 -49.918997056713394" />
<path style="fill-opacity: 0.0; stroke: #007f7f; stroke-width: 0.25" d="M 28.795991876326784 -35.1500029432866 Q 26.102 -33.83 23.102 -33.83" />
<path style="fill-opacity: 0.0; stroke: #007f7f; stroke-width: 0.25" d="M 10.5 -33.83 Q 7.5 -33.83 8.732672467857753 -36.56505367168278" />
<path style="fill-opacity: 0.0; stroke: #007f7f; stroke-width: 0.25" d="M 8.767327532142247 -36.64194632831722 Q 10 -39.377 13.0 -39.377" />
<path style="fill-opacity: 0.0; stroke: #007f7f; stroke-width: 0.25" d="M 13.983 -39.377 Q 16.983 -39.377 19.78033125507149 -40.46094550112087" />
<path style="fill-opacity: 0.0; stroke: #007f7f; stroke-width: 0.25" d="M 57.12066874492851 -54.93005449887914 Q 59.918 -56.014 62.87243327858873 -56.53488770610127" />
<path style="fill-opacity: 0.0; stroke: #007f7f; stroke-width: 0.25" d="M 76.75856672141126 -58.98311229389873 Q 79.713 -59.504 82.70279928235081 -59.75118465011921" />
<path style="fill-opacity: 0.0; stroke: #007f7f; stroke-width: 0.25" d="M 140.99820071764918 -64.57081534988079 Q 143.988 -64.818 144.50893915726823 -61.86357579308172" />
<path style="fill-opacity: 0.0; stroke: #007f7f; stroke-width: 0.25" d="M 162.64506084273177 40.99257579308173 Q 163.166 43.947 160.21506060583332 44.48733016939201" />
<path style="fill-opacity: 0.0; stroke: #007f7f; stroke-width: 0.25" d="M 26.955939394166677 68.88766983060799 Q 24.005 69.428 21.005 69.428" />
<path style="fill-opacity: 0.0; stroke: #007f7f; stroke-width: 0.25" d="M -21.005 69.428 Q -24.005 69.428 -26.955939394166677 68.88766983060799" />
<path style="fill-opacity: 0.0; stroke: #007f7f; stroke-width: 0.25" d="M -160.21506060583332 44.48733016939201 Q -163.166 43.947 -162.64506084273177 40.99257579308173" />
</svg>